<svg width="80" height="16" viewBox="0 0 80 16" fill="none" xmlns="http://www.w3.org/2000/svg">
<path fill-rule="evenodd" clip-rule="evenodd" d="M42.1585 1.94859C42.2123 1.96651 42.275 1.99338 42.3287 2.02025C42.4183 2.06503 42.4989 2.12772 42.5616 2.20833C42.6332 2.27999 42.678 2.36059 42.7138 2.45016C42.7407 2.54868 42.7586 2.64721 42.7586 2.75468C42.7586 2.92486 42.7228 3.09503 42.6511 3.24729C42.5795 3.40851 42.472 3.54286 42.3377 3.65034C42.1944 3.77573 42.0152 3.85634 41.8271 3.91904C41.5943 3.98173 41.3524 4.0086 41.1106 4.0086H39.5611L40.3851 0.0677148H41.7555C41.9346 0.0677148 42.1227 0.0856279 42.2929 0.139367C42.4272 0.175194 42.5616 0.237889 42.6691 0.327455C42.7586 0.408064 42.8303 0.506586 42.8751 0.623022C42.9198 0.739457 42.9467 0.855892 42.9467 0.981284C42.9467 1.10668 42.9288 1.22311 42.884 1.33059C42.8392 1.44703 42.7855 1.54555 42.7049 1.62616C42.6153 1.71572 42.5168 1.79633 42.4093 1.85007C42.3287 1.89485 42.2391 1.92172 42.1585 1.94859ZM41.1733 0.793196L40.9942 1.62616H41.3524C41.433 1.62616 41.5226 1.6172 41.6122 1.59033C41.6838 1.57242 41.7465 1.53659 41.8092 1.49181C41.854 1.45598 41.8988 1.40224 41.9257 1.3485C41.9525 1.28581 41.9615 1.22311 41.9615 1.15146C41.9615 1.09772 41.9615 1.04398 41.9436 0.999197C41.9257 0.954415 41.8988 0.918588 41.863 0.891719C41.8271 0.855892 41.7734 0.837979 41.7197 0.820066C41.648 0.802153 41.5674 0.793196 41.4957 0.793196H41.1733ZM40.8509 2.35164L40.6538 3.29208H41.0748C41.1823 3.29208 41.2987 3.27416 41.3972 3.24729C41.4778 3.22043 41.5495 3.1846 41.6122 3.13086C41.6659 3.08608 41.7107 3.03234 41.7376 2.96068C41.7644 2.89799 41.7734 2.82634 41.7734 2.75468C41.7734 2.63825 41.7376 2.53973 41.648 2.45912C41.5495 2.36955 41.3972 2.35164 41.2629 2.35164H40.8509ZM45.4366 3.14877H44.1469L43.6991 4.0086H42.6422L44.8724 0.0677148H45.9472L46.5025 4.0086H45.5441L45.4366 3.14877ZM45.2306 1.01711C45.2217 1.02607 45.2217 1.04398 45.2127 1.05294C45.1948 1.08876 45.1858 1.11563 45.1679 1.15146L44.5051 2.40538H45.365L45.2306 1.1425C45.2306 1.11563 45.2306 1.07981 45.2306 1.04398C45.2306 1.03502 45.2306 1.02607 45.2306 1.01711ZM48.2938 1.33955C48.2938 1.36642 48.2848 1.39329 48.2848 1.42911C48.2759 1.50972 48.2579 1.59033 48.24 1.67094L47.7474 4.0086H46.8607L47.6847 0.0677148H48.5804L49.7358 2.45912C49.7447 2.47703 49.7537 2.5039 49.7626 2.52181C49.7806 2.55764 49.7895 2.58451 49.7985 2.61138C49.8074 2.62034 49.8074 2.62929 49.8164 2.63825C49.8164 2.62034 49.8164 2.61138 49.8164 2.59347C49.8253 2.55764 49.8253 2.52181 49.8343 2.49494C49.8433 2.45912 49.8433 2.43225 49.8522 2.40538L50.3448 0.0677148H51.2315L50.4165 4.0086H49.5746L48.3833 1.53659C48.3654 1.50972 48.3565 1.48285 48.3475 1.45598C48.3296 1.42911 48.3206 1.40224 48.3027 1.36642C48.3027 1.35746 48.2938 1.3485 48.2938 1.33955ZM53.408 2.00233C53.4348 2.07398 53.4796 2.14564 53.5154 2.21729C53.5692 2.33373 53.6319 2.45016 53.6946 2.5666C53.7662 2.70094 53.8379 2.82634 53.9095 2.96068C53.9812 3.09503 54.0528 3.22043 54.1245 3.35477C54.1872 3.47121 54.2499 3.58764 54.3036 3.70408C54.3484 3.78469 54.3842 3.87425 54.4201 3.95486L54.4469 4.0086H53.3184L53.3094 3.98173C53.2826 3.91904 53.2557 3.84738 53.2199 3.78469C53.1751 3.68617 53.1303 3.58764 53.0855 3.48912C53.0228 3.38164 52.9691 3.26521 52.9154 3.15773C52.8527 3.04129 52.7989 2.93382 52.7452 2.81738C52.6914 2.71886 52.6467 2.62034 52.6019 2.52181C52.5661 2.45912 52.5392 2.38746 52.5123 2.32477C52.5034 2.2979 52.4944 2.27999 52.4854 2.25312L52.1272 4.0086H51.1778L52.0018 0.0677148H52.9422L52.5929 1.75155C52.6108 1.74259 52.6198 1.72468 52.6287 1.70677C52.6825 1.64407 52.7452 1.57242 52.7989 1.50972C52.8795 1.42016 52.9601 1.32163 53.0407 1.22311C53.1393 1.11563 53.2288 1.00815 53.3274 0.900675C53.4259 0.78424 53.5154 0.676761 53.614 0.569282C53.6946 0.47076 53.7752 0.381195 53.8558 0.282672C53.9095 0.219976 53.9633 0.15728 54.0081 0.0856279L54.017 0.0677148H55.1724L55.1187 0.139367C55.056 0.219976 54.9843 0.291629 54.9127 0.372238C54.8142 0.479717 54.7156 0.587195 54.6082 0.703631C54.4917 0.829023 54.3753 0.954415 54.2499 1.07981C54.1334 1.2052 54.0081 1.33059 53.8916 1.45598C53.7931 1.56346 53.6856 1.6799 53.5871 1.78738C53.5244 1.85903 53.4617 1.93068 53.408 2.00233ZM40.8598 8.9795H39.5611L39.1223 9.83933H38.0654L40.2956 5.89844H41.3704L41.9167 9.83933H40.9673L40.8598 8.9795ZM40.6449 6.84783C40.6449 6.85679 40.6359 6.8747 40.6359 6.88366C40.618 6.91949 40.6001 6.94636 40.5822 6.98218L39.9283 8.2361H40.7882L40.6538 6.97323C40.6538 6.94636 40.6538 6.91053 40.6449 6.8747C40.6449 6.86575 40.6449 6.85679 40.6449 6.84783ZM44.6574 8.0928C44.7291 8.12862 44.8007 8.19132 44.8545 8.26297C44.944 8.37941 44.9978 8.53167 45.0336 8.67497L45.3112 9.83933H44.3081L44.0931 8.81828C44.0752 8.69289 44.0305 8.56749 43.9409 8.47793C43.8603 8.38836 43.7618 8.36149 43.6453 8.36149H43.5378L43.2244 9.83933H42.2839L43.1079 5.89844H44.4335C44.6216 5.89844 44.8276 5.91635 45.0067 5.97905C45.15 6.03279 45.2844 6.10444 45.4008 6.20296C45.4993 6.30148 45.571 6.40896 45.6158 6.53435C45.6695 6.65975 45.6874 6.79409 45.6874 6.91949C45.6874 7.0807 45.6605 7.24192 45.5978 7.38523C45.5352 7.51958 45.4545 7.63601 45.3471 7.74349C45.2485 7.84201 45.1232 7.92262 44.9888 7.98532C44.8813 8.0301 44.7738 8.06593 44.6574 8.0928ZM43.8961 6.63288L43.6901 7.62705H43.9857C44.0931 7.62705 44.2006 7.6181 44.3081 7.58227C44.3887 7.54645 44.4604 7.51062 44.5231 7.45688C44.5858 7.40314 44.6216 7.3494 44.6574 7.27775C44.6843 7.2061 44.6932 7.1434 44.6932 7.06279C44.6932 6.94636 44.6664 6.82992 44.5858 6.74931C44.4872 6.65975 44.3439 6.63288 44.2185 6.63288H43.8961ZM47.9086 6.68662L47.2548 9.83933H46.3144L46.9592 6.68662H45.8845L46.0546 5.89844H49.1446L48.9745 6.68662H47.9086ZM51.4913 8.28088H50.0224L49.7 9.83933H48.7506L49.5746 5.89844H50.515L50.1926 7.43897H51.6704L51.9928 5.89844H52.9333L52.1093 9.83933H51.1688L51.4913 8.28088ZM55.262 8.9795H53.9633L53.5154 9.83933H52.4675L54.6888 5.89844H55.7635L56.3189 9.83933H55.3695L55.262 8.9795ZM55.047 6.84783C55.0381 6.85679 55.0381 6.8747 55.0291 6.88366C55.0201 6.91949 55.0022 6.94636 54.9843 6.98218L54.3215 8.2361H55.1814L55.056 6.97323C55.047 6.94636 55.047 6.91053 55.047 6.8747C55.047 6.86575 55.047 6.85679 55.047 6.84783ZM60.5911 9.0601L60.7344 8.34358H59.9642L60.1254 7.57332H61.8271L61.4062 9.5975L61.3883 9.60645C61.3077 9.64228 61.2271 9.68706 61.1375 9.71393C61.039 9.74976 60.9404 9.78559 60.8419 9.81246C60.7255 9.84828 60.618 9.8662 60.5016 9.88411C60.3672 9.90202 60.2329 9.91098 60.0985 9.91098C59.8477 9.91098 59.597 9.87515 59.3551 9.78559C59.1491 9.70498 58.961 9.58854 58.7998 9.42732C58.6476 9.26611 58.5311 9.07802 58.4595 8.86306C58.3789 8.63915 58.343 8.39732 58.343 8.15549C58.343 7.94949 58.3609 7.75245 58.4057 7.5554C58.4505 7.36731 58.5132 7.17923 58.6028 7.00905C58.6923 6.83888 58.8088 6.67766 58.9431 6.53435C59.0775 6.39105 59.2387 6.26566 59.4089 6.16713C59.597 6.0507 59.803 5.97905 60.009 5.92531C60.2508 5.86261 60.5016 5.83574 60.7434 5.83574C60.8598 5.83574 60.9763 5.8447 61.0927 5.85365C61.2002 5.87157 61.2987 5.88948 61.4062 5.90739C61.4957 5.93426 61.5853 5.95218 61.6659 5.97905C61.7465 6.00592 61.8182 6.03279 61.8898 6.05966L61.9167 6.07757L61.7286 6.96427L61.6838 6.92844C61.6211 6.88366 61.5584 6.84783 61.4957 6.82096C61.4241 6.78514 61.3435 6.75827 61.2629 6.7314C61.1823 6.70453 61.0927 6.68662 60.9942 6.6687C60.9046 6.65079 60.8061 6.64183 60.7076 6.64183C60.5105 6.64183 60.3135 6.67766 60.1254 6.74931C59.9642 6.82096 59.8119 6.91949 59.6955 7.04488C59.5701 7.17923 59.4805 7.34044 59.4178 7.51062C59.3462 7.70766 59.3193 7.90471 59.3193 8.11071C59.3193 8.25401 59.3372 8.40628 59.382 8.54062C59.4178 8.65706 59.4805 8.76454 59.5611 8.84515C59.6417 8.93471 59.7403 8.99741 59.8477 9.04219C59.9642 9.08697 60.0896 9.10489 60.215 9.10489C60.2956 9.10489 60.3762 9.10489 60.4478 9.09593C60.4926 9.08697 60.5374 9.06906 60.5911 9.0601ZM64.3798 8.0928C64.4514 8.12862 64.5141 8.19132 64.5678 8.26297C64.6574 8.37941 64.7112 8.53167 64.747 8.67497L65.0246 9.83933H64.0304L63.8155 8.81828C63.7886 8.69289 63.7438 8.56749 63.6543 8.47793C63.5826 8.38836 63.4751 8.36149 63.3587 8.36149H63.2512L62.9467 9.83933H61.9973L62.8213 5.89844H64.1469C64.335 5.89844 64.541 5.91635 64.7201 5.97905C64.8634 6.03279 65.0067 6.10444 65.1142 6.20296C65.2127 6.30148 65.2844 6.40896 65.3381 6.53435C65.3829 6.65975 65.4008 6.79409 65.4008 6.91949C65.4008 7.0807 65.3739 7.24192 65.3112 7.38523C65.2575 7.51958 65.1679 7.63601 65.0694 7.74349C64.9619 7.84201 64.8365 7.92262 64.7022 7.98532C64.5947 8.0301 64.4872 8.06593 64.3798 8.0928ZM63.6095 6.63288L63.4035 7.62705H63.6991C63.8065 7.62705 63.923 7.6181 64.0215 7.58227C64.1021 7.54645 64.1827 7.51062 64.2454 7.45688C64.2991 7.40314 64.3439 7.3494 64.3708 7.27775C64.3977 7.2061 64.4156 7.1434 64.4156 7.06279C64.4156 6.94636 64.3887 6.82992 64.2991 6.74931C64.2006 6.65975 64.0573 6.63288 63.9319 6.63288H63.6095ZM67.837 8.9795H66.5383L66.0994 9.83933H65.0425L67.2638 5.89844H68.3475L68.8939 9.83933H67.9445L67.837 8.9795ZM67.622 6.84783C67.622 6.85679 67.6131 6.8747 67.6041 6.88366C67.5952 6.91949 67.5772 6.94636 67.5593 6.98218L66.8966 8.2361H67.7653L67.631 6.97323C67.631 6.94636 67.622 6.91053 67.622 6.8747C67.622 6.86575 67.622 6.85679 67.622 6.84783ZM72.0018 8.28088H70.524L70.2015 9.83933H69.2611L70.0761 5.89844H71.0255L70.7031 7.43897H72.172L72.4944 5.89844H73.4348L72.6198 9.83933H71.6794L72.0018 8.28088ZM75.7635 8.9795H74.4648L74.026 9.83933H72.9691L75.1993 5.89844H76.2741L76.8294 9.83933H75.871L75.7635 8.9795ZM75.5575 6.84783C75.5486 6.85679 75.5396 6.8747 75.5396 6.88366C75.5217 6.91949 75.5038 6.94636 75.4859 6.98218L74.8321 8.2361H75.6919L75.5575 6.97323C75.5575 6.94636 75.5575 6.91053 75.5575 6.8747C75.5575 6.86575 75.5575 6.85679 75.5575 6.84783ZM37.9669 15.4014H37.0264L37.8415 11.4605H38.7819L37.9669 15.4014ZM40.1612 12.7323C40.1612 12.7592 40.1612 12.786 40.1523 12.8219C40.1433 12.9025 40.1254 12.9831 40.1075 13.0637L39.6149 15.4014H38.7371L39.5522 11.4605H40.4568L41.6032 13.8429C41.6122 13.8698 41.6211 13.8966 41.6301 13.9146C41.648 13.9414 41.657 13.9773 41.6749 14.0041C41.6749 14.0131 41.6838 14.022 41.6838 14.022C41.6838 14.0131 41.6928 13.9952 41.6928 13.9862C41.6928 13.9504 41.7017 13.9146 41.7107 13.8877C41.7107 13.8519 41.7197 13.825 41.7286 13.7981L42.2123 11.4605H43.099L42.2839 15.4014H41.451L40.2508 12.9293C40.2418 12.9025 40.2239 12.8756 40.215 12.8487C40.206 12.8219 40.1881 12.795 40.1791 12.7592C40.1702 12.7502 40.1702 12.7413 40.1612 12.7323ZM45.3829 12.2486L44.7291 15.4014H43.7797L44.4335 12.2486H43.3587L43.5199 11.4605H46.6099L46.4487 12.2486H45.3829ZM47.8191 12.2486L47.6579 13.0368H48.8939L48.7237 13.834H47.4966L47.3265 14.6132H48.7416L48.5804 15.4014H46.2248L47.0488 11.4605H49.3059L49.1446 12.2486H47.8191ZM51.4644 13.6548C51.536 13.6906 51.5987 13.7533 51.6525 13.825C51.751 13.9414 51.8047 14.0937 51.8406 14.237L52.1093 15.4014H51.1151L50.9001 14.3803C50.8822 14.2549 50.8374 14.1295 50.7479 14.031C50.6673 13.9504 50.5598 13.9235 50.4523 13.9235H50.3359L50.0313 15.4014H49.0909L49.906 11.4605H51.2405C51.4286 11.4605 51.6256 11.4784 51.8137 11.5411C51.957 11.5948 52.0914 11.6665 52.1988 11.765C52.3063 11.8635 52.378 11.971 52.4227 12.0964C52.4675 12.2218 52.4944 12.3561 52.4944 12.4815C52.4944 12.6427 52.4675 12.795 52.4048 12.9473C52.3421 13.0816 52.2615 13.198 52.1541 13.2966C52.0466 13.404 51.9301 13.4846 51.7958 13.5473C51.6883 13.5921 51.5808 13.628 51.4644 13.6548ZM50.7031 12.1949L50.4881 13.1891H50.7837C50.8912 13.1891 51.0076 13.1801 51.1151 13.1353C51.1957 13.1085 51.2673 13.0726 51.33 13.0189C51.3838 12.9652 51.4286 12.9114 51.4644 12.8398C51.4913 12.7681 51.5002 12.6965 51.5002 12.6248C51.5002 12.5084 51.4734 12.3919 51.3838 12.3113C51.2942 12.2128 51.1509 12.1949 51.0255 12.1949H50.7031ZM53.9722 12.7323C53.9722 12.7592 53.9722 12.786 53.9633 12.8219C53.9543 12.9025 53.9364 12.9831 53.9185 13.0637L53.4259 15.4014H52.5481L53.3632 11.4605H54.2678L55.4142 13.8429C55.4232 13.8698 55.4322 13.8966 55.4501 13.9146C55.459 13.9414 55.4769 13.9773 55.4859 14.0041C55.4859 14.0131 55.4949 14.022 55.4949 14.022C55.4949 14.0131 55.5038 13.9952 55.5038 13.9862C55.5038 13.9504 55.5128 13.9146 55.5217 13.8877C55.5217 13.8519 55.5307 13.825 55.5396 13.7981L56.0233 11.4605H56.91L56.0949 15.4014H55.262L54.0618 12.9293C54.0528 12.9025 54.0349 12.8756 54.026 12.8487C54.017 12.8219 53.9991 12.795 53.9901 12.7592C53.9812 12.7502 53.9812 12.7413 53.9722 12.7323ZM59.2387 14.5415H57.9489L57.5011 15.4014H56.4442L58.6744 11.4605H59.7492L60.3045 15.4014H59.3462L59.2387 14.5415ZM59.0327 12.4099C59.0237 12.4188 59.0237 12.4367 59.0148 12.4457C58.9969 12.4815 58.979 12.5084 58.97 12.5442L58.3072 13.7981H59.167L59.0327 12.5353C59.0327 12.4994 59.0327 12.4726 59.0327 12.4367C59.0327 12.4278 59.0327 12.4188 59.0327 12.4099ZM63.3766 12.4278C63.3229 12.3919 63.2602 12.3651 63.1975 12.3293C63.1348 12.3024 63.0631 12.2666 62.9915 12.2486C62.9198 12.2218 62.8392 12.2039 62.7676 12.1859C62.687 12.168 62.5974 12.1591 62.5168 12.1591C62.4362 12.1591 62.3466 12.168 62.275 12.2039C62.2212 12.2218 62.1675 12.2576 62.1227 12.2934C62.0958 12.3293 62.069 12.3651 62.0511 12.4099C62.0331 12.4546 62.0242 12.4905 62.0242 12.5353C62.0242 12.58 62.0331 12.6338 62.0511 12.6786C62.069 12.7323 62.0958 12.7771 62.1317 12.8129C62.1764 12.8577 62.2212 12.9025 62.275 12.9473C62.3556 13.001 62.4272 13.0547 62.5078 13.0995C62.6243 13.1712 62.7318 13.2518 62.8303 13.3324C62.9198 13.404 63.0004 13.4936 63.0721 13.5832C63.1437 13.6727 63.1975 13.7713 63.2333 13.8787C63.2691 13.9952 63.2781 14.1116 63.2781 14.237C63.2781 14.3176 63.2691 14.4072 63.2512 14.4878C63.2333 14.5773 63.2065 14.6759 63.1617 14.7654C63.1258 14.855 63.0631 14.9446 62.9915 15.0252C62.9109 15.1147 62.8213 15.1954 62.7138 15.258C62.5884 15.3297 62.4541 15.3745 62.3197 15.4103C62.1406 15.4551 61.9615 15.473 61.7824 15.473C61.6659 15.473 61.5584 15.464 61.442 15.4461C61.3435 15.4282 61.236 15.4103 61.1375 15.3834C61.0479 15.3566 60.9584 15.3297 60.8688 15.2939C60.7882 15.267 60.7165 15.2312 60.6449 15.1954L60.618 15.1774L60.7792 14.3176L60.833 14.3624C60.8957 14.4072 60.9673 14.452 61.039 14.4967C61.1106 14.5415 61.1912 14.5773 61.2718 14.6042C61.3524 14.64 61.442 14.658 61.5316 14.6759C61.6122 14.6938 61.7017 14.7027 61.7913 14.7027C61.8719 14.7027 61.9615 14.6938 62.0331 14.6759C62.0869 14.658 62.1496 14.6311 62.1944 14.5863C62.2302 14.5505 62.257 14.5147 62.275 14.4699C62.2929 14.4161 62.3018 14.3624 62.3018 14.3176C62.3018 14.2639 62.2929 14.2191 62.275 14.1653C62.257 14.1206 62.2302 14.0847 62.1944 14.0489C62.1496 13.9952 62.0869 13.9504 62.0331 13.9146C61.9525 13.8608 61.863 13.8071 61.7824 13.7533C61.6749 13.6996 61.5764 13.628 61.4868 13.5563C61.3972 13.4846 61.3166 13.404 61.245 13.3055C61.1823 13.216 61.1285 13.1174 61.0927 13.0099C61.0569 12.8846 61.039 12.7592 61.039 12.6338C61.039 12.4815 61.0658 12.3293 61.1285 12.1859C61.1823 12.0337 61.2718 11.8993 61.3883 11.7829C61.5226 11.6575 61.6838 11.5679 61.8451 11.5052C62.06 11.4246 62.2839 11.3978 62.5078 11.3978C62.6153 11.3978 62.7138 11.4067 62.8124 11.4157C62.9109 11.4246 63.0004 11.4426 63.099 11.4605C63.1796 11.4784 63.2602 11.5052 63.3498 11.5321C63.4214 11.55 63.4931 11.5769 63.5647 11.6127L63.5916 11.6217L63.4304 12.4636L63.3766 12.4278ZM64.5141 15.4014H63.5647L64.3798 11.4605H65.3292L64.5141 15.4014ZM69.2253 13.0995C69.2253 13.2518 69.2163 13.413 69.1894 13.5653C69.1626 13.7265 69.1178 13.8787 69.073 14.031C69.0193 14.1743 68.9476 14.3176 68.867 14.452C68.7953 14.5953 68.6968 14.7207 68.5893 14.8281C68.4998 14.9267 68.4013 15.0162 68.3027 15.0968C68.1953 15.1774 68.0788 15.2401 67.9534 15.2939C67.8191 15.3566 67.6847 15.3924 67.5504 15.4282C67.3892 15.4551 67.2369 15.473 67.0757 15.473C66.8428 15.473 66.6099 15.4372 66.395 15.3387C66.1979 15.258 66.0278 15.1416 65.8845 14.9804C65.7322 14.8281 65.6337 14.64 65.562 14.443C65.4814 14.228 65.4545 13.9952 65.4545 13.7713C65.4545 13.6011 65.4635 13.4309 65.4993 13.2697C65.5262 13.1085 65.562 12.9473 65.6247 12.795C65.6874 12.6427 65.7591 12.4905 65.8397 12.3561C65.9292 12.2218 66.0278 12.0874 66.1442 11.9799C66.2338 11.8904 66.3323 11.8098 66.4398 11.7381C66.5383 11.6665 66.6547 11.6038 66.7712 11.559C66.8966 11.5052 67.0309 11.4605 67.1652 11.4336C67.3085 11.4067 67.4519 11.3978 67.6041 11.3978C67.828 11.3978 68.0519 11.4336 68.2579 11.5142C68.455 11.5859 68.6341 11.7023 68.7774 11.8456C68.9297 12.0068 69.0372 12.1859 69.1088 12.383C69.1984 12.6159 69.2253 12.8577 69.2253 13.0995ZM68.24 13.1264C68.24 13.001 68.2311 12.8666 68.1953 12.7502C68.1594 12.6427 68.1146 12.5532 68.043 12.4726C67.9803 12.3919 67.9086 12.3382 67.8191 12.3024C67.7206 12.2576 67.6131 12.2397 67.5056 12.2397C67.3712 12.2397 67.2459 12.2666 67.1205 12.3293C66.9951 12.4009 66.8876 12.4905 66.798 12.5979C66.7353 12.6696 66.6906 12.7502 66.6458 12.8398C66.601 12.9293 66.5652 13.0279 66.5293 13.1264C66.5025 13.2339 66.4756 13.3324 66.4577 13.4399C66.4487 13.5473 66.4398 13.6548 66.4398 13.7533C66.4398 13.8877 66.4487 14.0131 66.4846 14.1385C66.5204 14.237 66.5652 14.3266 66.6368 14.4072C66.6995 14.4878 66.7712 14.5415 66.8607 14.5773C66.9592 14.6221 67.0578 14.64 67.1652 14.64C67.2996 14.64 67.4339 14.6042 67.5593 14.5415C67.6847 14.4788 67.7922 14.3803 67.8907 14.2639C67.9445 14.1922 67.9982 14.1116 68.043 14.022C68.0878 13.9325 68.1236 13.834 68.1505 13.7354C68.1863 13.628 68.2042 13.5294 68.2221 13.422C68.2311 13.3234 68.24 13.2249 68.24 13.1264ZM70.8106 12.7323C70.8016 12.7592 70.8016 12.786 70.8016 12.8219C70.7837 12.9025 70.7747 12.9831 70.7568 13.0637L70.2642 15.4014H69.3775L70.1926 11.4605H71.0972L72.2436 13.8429C72.2526 13.8698 72.2705 13.8966 72.2794 13.9146C72.2974 13.9414 72.3063 13.9773 72.3153 14.0041C72.3242 14.0131 72.3242 14.022 72.3332 14.022C72.3332 14.0131 72.3332 13.9952 72.3332 13.9862C72.3421 13.9504 72.3421 13.9146 72.3511 13.8877C72.3601 13.8519 72.3601 13.825 72.369 13.7981L72.8527 11.4605H73.7483L72.9243 15.4014H72.0914L70.9001 12.9293C70.8822 12.9025 70.8733 12.8756 70.8553 12.8487C70.8464 12.8219 70.8374 12.795 70.8195 12.7592C70.8195 12.7502 70.8106 12.7413 70.8106 12.7323ZM76.077 14.5415H74.7783L74.3305 15.4014H73.2826L75.5038 11.4605H76.5786L77.1339 15.4014H76.1845L76.077 14.5415ZM75.8621 12.4099C75.8621 12.4188 75.8531 12.4367 75.8442 12.4457C75.8352 12.4815 75.8173 12.5084 75.7994 12.5442L75.1366 13.7981H75.9964L75.871 12.5353C75.8621 12.4994 75.8621 12.4726 75.8621 12.4367C75.8621 12.4278 75.8621 12.4188 75.8621 12.4099ZM78.6117 14.6042H80L79.8388 15.4014H77.5011L78.3162 11.4605H79.2656L78.6117 14.6042Z" fill="black"/>
<path fill-rule="evenodd" clip-rule="evenodd" d="M34.4201 0.273754H38.3072L34.7873 15.4462C31.9481 15.4462 29.1357 15.4372 26.2875 15.4372C26.4487 14.7476 26.6099 14.0489 26.7801 13.3593C25.0694 15.6522 22.3377 16.297 20.0717 15.4103C17.3578 15.4103 14.644 15.4103 11.9301 15.4103L10.4792 8.33466L5.66055 15.4462L0 15.4641L3.45723 10.4126H6.24272L7.69369 8.23614H4.94402L10.4792 0.175231H13.2826L16.0591 13.0189H17.2414C17.1249 12.8309 17.0175 12.6428 16.9189 12.4368C15.3515 7.71666 18.549 1.43811 24.2096 0.228971C29.082 -0.756251 32.0107 1.49185 31.8764 5.9343C30.3807 5.92535 28.876 5.91639 27.3713 5.90743C27.7743 3.45333 24.7022 2.87116 22.884 5.01178C22.06 6.02387 21.5047 7.16135 21.245 8.22718H19.2656C19.0685 9.0064 19.0954 9.71397 19.2656 10.3857H21.1823C21.3345 11.0306 21.6749 11.559 22.2123 11.8725C23.2244 12.3741 25.3381 12.177 26.2606 10.5738C25.5172 10.5738 24.7649 10.5738 24.0215 10.5738C24.2365 9.77667 24.4514 8.97058 24.6664 8.17344C26.9145 8.17344 29.1536 8.17344 31.3927 8.17344L30.1926 13.0727H31.4554L34.4201 0.273754Z" fill="#A28548"/>
</svg>
