<svg width="80" height="57" viewBox="0 0 80 57" fill="none" xmlns="http://www.w3.org/2000/svg">
<path fill-rule="evenodd" clip-rule="evenodd" d="M9.17714 53.3997L12.189 45.162L13.174 53.3997H16.3559L14.6326 41.3009H10.7495L8.17793 48.569L5.60695 41.3009H1.72388L0 53.3997H3.18251L4.16688 45.162L7.17934 53.3997H9.17714Z" fill="#231F20"/>
<path fill-rule="evenodd" clip-rule="evenodd" d="M69.5732 40.3033V53.3891H72.8695V48.8328L76.2499 53.3891H80L76.279 48.5788L79.668 44.4023H75.8808L72.8695 48.3316V40.3033H69.5732Z" fill="#231F20"/>
<path fill-rule="evenodd" clip-rule="evenodd" d="M33.8861 44.4023L31.7282 50.6946L29.5393 44.4023H25.9036L29.995 53.3996L28.3744 56.9292H31.8982L37.5231 44.4023H33.8861Z" fill="#231F20"/>
<path fill-rule="evenodd" clip-rule="evenodd" d="M41.4064 51.3128V46.58C42.0742 46.3545 44.4931 45.7492 44.4931 48.8241C44.4931 51.9578 42.0117 51.477 41.4064 51.3128ZM38.0532 52.9361C38.0532 52.9361 39.7963 53.5891 42.2399 53.5891C44.6829 53.5891 47.8648 52.8289 47.8648 48.6165C47.8648 44.4023 43.6416 44.2505 43.1488 44.2505C42.2189 44.2505 41.6247 44.5039 41.4064 44.616V40.2834H38.0532V52.9361Z" fill="#231F20"/>
<path fill-rule="evenodd" clip-rule="evenodd" d="M51.3508 50.6274C51.3508 49.3344 53.8031 49.2421 54.4771 49.2414V51.5443C53.7753 51.6286 51.3508 51.8287 51.3508 50.6274ZM49.6647 46.6802C54.4758 45.2564 54.4771 46.9658 54.4771 47.1925V47.498C50.5829 47.5308 48.2629 48.6454 48.2629 50.6658C48.2629 52.7153 50.4227 53.6075 53.2831 53.6075C56.1435 53.6075 57.6015 52.9427 57.6015 52.9427V47.3443C57.6015 45.3704 56.3327 44.1177 53.2831 44.1177C50.2329 44.1177 48.9078 44.8395 48.9078 44.8395L49.6647 46.6802Z" fill="#231F20"/>
<path fill-rule="evenodd" clip-rule="evenodd" d="M19.8701 50.6274C19.8701 49.3344 22.3224 49.2421 22.9951 49.2414V51.5443C22.294 51.6286 19.8701 51.8287 19.8701 50.6274ZM18.184 46.6802C22.9951 45.2564 22.9951 46.9658 22.9951 47.1925V47.498C19.1022 47.5308 16.7822 48.6454 16.7822 50.6658C16.7822 52.7153 18.942 53.6075 21.8018 53.6075C24.6621 53.6075 26.1208 52.9427 26.1208 52.9427V47.3443C26.1208 45.3704 24.852 44.1177 21.8018 44.1177C18.7522 44.1177 17.4265 44.8395 17.4265 44.8395L18.184 46.6802Z" fill="#231F20"/>
<path fill-rule="evenodd" clip-rule="evenodd" d="M65.0077 53.3802H68.3225V47.6865C68.3225 44.7256 66.2017 44.0986 63.5868 44.0986C60.9738 44.0986 58.8708 44.8198 58.8708 44.8198V53.3802H62.1863V46.5725C64.735 45.826 65.0077 47.0527 65.0077 47.6481V53.3802Z" fill="#231F20"/>
<mask id="mask0_302_1278" style="mask-type:luminance" maskUnits="userSpaceOnUse" x="21" y="0" width="36" height="35">
<path fill-rule="evenodd" clip-rule="evenodd" d="M21.9385 0H56.7819V34.9142H21.9385V0Z" fill="white"/>
</mask>
<g mask="url(#mask0_302_1278)">
<path fill-rule="evenodd" clip-rule="evenodd" d="M39.3597 -0.000244141C29.7544 -0.000244141 21.9383 7.83257 21.9383 17.456C21.9383 27.0815 29.7544 34.9143 39.3597 34.9143C48.967 34.9143 56.7821 27.0815 56.7821 17.456C56.7821 7.83257 48.967 -0.000244141 39.3597 -0.000244141Z" fill="#FFC600"/>
<path fill-rule="evenodd" clip-rule="evenodd" d="M39.3597 -0.000244141C29.7544 -0.000244141 21.9383 7.83257 21.9383 17.456C21.9383 27.0815 29.7544 34.9143 39.3597 34.9143C48.967 34.9143 56.7821 27.0815 56.7821 17.456C56.7821 7.83257 48.967 -0.000244141 39.3597 -0.000244141ZM39.3595 1.45757C48.1767 1.45757 55.3258 8.61878 55.3258 17.4558C55.3258 26.2917 48.1767 33.454 39.3595 33.454C30.5434 33.454 23.3954 26.2917 23.3954 17.4558C23.3954 8.61878 30.5434 1.45757 39.3595 1.45757Z" fill="#231F20"/>
</g>
<path fill-rule="evenodd" clip-rule="evenodd" d="M31.8573 11.3441C31.8573 11.3441 32.2267 9.88931 32.8167 9.39688C33.4077 8.90337 35.5309 7.49795 38.5974 6.51201C38.9625 6.39399 39.3865 6.52917 39.4057 6.53561C39.3854 6.65684 39.3736 6.73945 39.3683 6.76627C39.3276 6.99693 39.1552 7.14391 39.1552 7.14391C39.7784 7.22652 40.1884 6.78344 40.303 6.27276C40.4186 5.76531 40.8116 3.74622 41.4519 3.77626C43.2389 3.8578 44.5183 9.64363 44.3877 9.9054C44.301 10.0771 43.5997 9.93759 43.5997 9.93759C44.7143 11.696 46.1736 11.6788 46.5023 11.4009C46.83 11.1231 46.6501 10.2176 46.6501 10.2176C50.1599 12.3053 49.9629 14.7868 49.9629 14.7868C51.0121 10.6789 48.5859 8.91946 48.5859 8.91946C49.5367 8.8862 50.5699 9.4945 50.5699 9.4945C49.0934 7.50653 46.043 6.40472 46.043 6.40472C46.043 6.40472 42.4851 2.44487 41.3373 2.59292C40.3854 2.71629 39.8415 4.46503 39.5749 5.66017C39.4443 5.64944 39.1948 5.63979 38.8704 5.67841C38.6188 5.36514 37.5534 4.09811 37.1391 4.51545C36.9774 4.67638 36.926 5.81788 36.9121 6.29744C35.1883 6.98406 32.2556 8.27468 31.6592 9.222C31.1196 10.0856 30.9954 10.7272 30.9954 10.7272C30.9954 10.7272 27.4792 12.9941 26.6173 15.4616C26.6173 15.4616 28.9793 12.6991 31.8573 11.3441Z" fill="#231F20"/>
<path fill-rule="evenodd" clip-rule="evenodd" d="M43.1733 9.51271C43.123 7.68673 42.2225 6.22552 41.7621 6.14077C41.3039 6.06031 41.1561 7.80045 41.1561 7.80045C42.3703 8.60508 43.1733 9.51271 43.1733 9.51271Z" fill="#231F20"/>
<path fill-rule="evenodd" clip-rule="evenodd" d="M34.5298 9.18392C33.8242 9.60876 34.1369 9.97138 34.1369 9.97138C34.1369 9.97138 34.0223 9.60876 34.8917 9.36308C36.4421 8.92429 37.8436 8.47477 37.8094 8.0982C37.7773 7.72056 36.728 7.57251 36.728 7.57251C37.0235 7.96624 35.2354 8.75585 34.5298 9.18392Z" fill="#231F20"/>
<path fill-rule="evenodd" clip-rule="evenodd" d="M35.2597 11.5978C35.4728 11.5978 35.6451 11.4262 35.6451 11.2127C35.6451 11.0957 35.5927 10.9949 35.5102 10.9241C35.7661 10.9069 36.3507 10.9391 36.3507 10.9391C36.2854 10.9241 36.1377 11.0882 35.809 11.4991C35.4813 11.9111 35.1708 11.5978 35.1708 11.5978L35.1655 11.5796C35.1954 11.586 35.2265 11.5978 35.2597 11.5978ZM34.022 13.3563C34.022 13.3563 34.4642 12.322 34.7929 12.1912C34.7929 12.1912 35.3668 12.3381 35.6783 12.2223C35.9899 12.1085 36.5799 11.32 36.8101 11.3028C36.8101 11.3028 36.203 13.9463 33.7425 13.898C33.7425 13.898 35.5145 14.9011 36.416 14.1941C37.3186 13.4871 36.6291 12.9454 37.794 11.8114C38.9579 10.6763 38.1881 10.6291 38.1388 10.6463C38.0895 10.6613 37.7277 10.5465 37.7277 10.5465C37.7277 10.5465 37.8915 10.333 38.2212 10.1871C38.5489 10.0369 40.4344 9.18398 40.4676 8.67116C40.4997 8.1637 39.1056 7.58866 38.4011 7.60368C38.4011 7.60368 39.0393 7.86653 39.0071 8.22915C38.975 8.5907 37.1388 9.3964 37.1388 10.4317C37.1388 10.4317 36.4824 10.48 36.006 10.3834C35.5306 10.2826 35.022 10.333 34.4973 10.6763C33.9727 11.0228 33.9406 10.2515 33.9888 10.1517C33.9888 10.1517 32.9727 10.7922 34.2522 11.614C34.2522 11.614 33.7264 12.1568 33.6772 12.2888C33.6279 12.4197 33.4149 13.1256 34.022 13.3563Z" fill="#231F20"/>
<path fill-rule="evenodd" clip-rule="evenodd" d="M32.3983 16.7419C32.3983 16.7419 32.3737 15.8053 31.5118 16.0027C30.0642 16.3331 29.5685 18.9101 29.5685 18.9101C31.1938 15.904 32.3983 16.7419 32.3983 16.7419Z" fill="#231F20"/>
<path fill-rule="evenodd" clip-rule="evenodd" d="M32.94 19.0332C33.7259 17.7533 32.7676 16.939 31.5374 17.6278C30.3082 18.3187 30.0117 19.9709 30.0117 19.9709C32.4475 17.3092 32.94 19.0332 32.94 19.0332Z" fill="#231F20"/>
<path fill-rule="evenodd" clip-rule="evenodd" d="M44.5514 17.3821C44.5514 17.3821 43.6649 16.5957 43.7634 15.1388C43.8619 13.684 44.1328 11.4933 41.6734 9.96338C41.6734 9.96338 42.6809 11.5169 42.3115 13.0446C41.9422 14.5734 40.7108 17.1815 40.8115 18.0483C41.0331 19.9462 43.0011 20.2916 42.8533 22.8793C42.8533 22.8793 44.0097 21.4728 43.7891 19.8228C43.5675 18.1706 42.1156 17.455 42.7548 16.1505C42.7548 16.1505 43.4925 17.234 44.5514 17.3821Z" fill="#231F20"/>
<path fill-rule="evenodd" clip-rule="evenodd" d="M33.3702 24.9737C33.1475 24.9018 32.9516 24.0875 32.9516 24.0875C33.2717 24.3471 33.9238 24.3589 33.9238 24.3589C33.6154 24.6529 33.5919 25.0477 33.3702 24.9737ZM35.8264 22.3785C35.8264 22.3785 36.5962 22.4107 36.6294 22.2798C36.6626 22.1478 36.3832 21.2434 36.3832 21.2434C36.3832 21.2434 37.3511 21.3421 37.3682 21.6554C37.3843 21.9655 36.8264 22.7572 35.6455 23.2657C35.6455 23.2657 35.8596 22.6403 35.8264 22.3785ZM30.822 21.5406C30.928 21.4795 31.0275 21.414 31.1185 21.3421C31.3584 21.1608 31.5382 21.0739 31.6592 21.0342C31.6346 21.3808 31.6143 21.9901 31.7224 22.4965C31.7224 22.4965 31.0853 22.0878 30.822 21.5406ZM27.7405 18.3843C27.3636 18.3843 26.6912 17.3823 26.5766 17.1849C26.4621 16.9885 27.2148 16.6259 27.446 16.5605C27.6752 16.494 27.9171 16.5497 27.9535 16.6613C27.9867 16.7568 27.4792 17.0701 27.4128 17.1849C27.3475 17.3007 27.8154 17.7331 27.8882 17.8243C28.0189 17.9916 28.1184 18.3843 27.7405 18.3843ZM51.6331 10.5043C51.6331 10.5043 53.7842 16.3641 51.3569 21.6876C51.3569 21.6876 51.495 20.9141 50.8976 19.3885C50.2573 17.7535 50.4714 15.641 50.7338 15.2473C50.7338 15.2473 49.5517 16.4296 49.6181 18.4025C49.6845 20.3723 50.208 25.9274 46.2079 27.998C46.2079 27.998 47.724 25.2204 47.1576 21.9654C47.1576 21.9654 47.6748 22.165 47.9457 22.8548C47.9457 22.8548 49.0281 19.9957 47.6255 16.4939C47.6255 16.4939 48.4125 16.6431 48.905 17.0615C48.905 17.0615 49.4221 14.5564 46.5923 12.7969C45.8792 12.3528 45.9766 12.1082 45.9766 12.1082C45.9766 12.1082 45.7561 12.6746 46.2229 13.2411C46.6897 13.8086 47.3311 14.9179 47.2326 15.4855C47.2326 15.4855 46.4692 14.9415 45.3621 15.0907C45.3621 15.0907 47.4778 16.8888 47.1576 20.7596C47.1576 20.7596 46.618 20.1684 45.24 19.9217C45.24 19.9217 46.7893 22.8312 45.4113 25.6152C45.4113 25.6152 45.3128 24.6293 44.8706 24.0124C44.8706 24.0124 44.5258 26.0594 42.0664 26.775C42.0664 26.775 44.0579 24.2838 41.6971 23.0286C39.3351 21.7691 37.3425 24.5553 36.9496 26.9971C36.9496 26.9971 34.2193 27.1923 33.9484 26.0841C33.6775 24.9737 34.4645 24.5049 34.4645 24.5049C34.4645 24.5049 34.8831 24.7763 35.8435 24.3332C36.8018 23.8901 38.819 22.681 38.622 21.1533C38.425 19.6266 36.0395 18.1225 34.1443 18.7373C32.2513 19.3552 31.1678 21.031 30.1838 21.0063C29.1998 20.9816 27.9942 19.4775 28.1677 18.6901C28.339 17.9004 28.9782 17.6784 29.1998 16.347C29.1998 16.347 28.8561 16.3802 28.627 16.2322C28.3968 16.083 27.7897 15.8374 27.4621 15.921C27.1334 16.0026 26.3304 16.5454 26.2972 16.4457C26.264 16.347 26.3796 15.7537 26.3796 15.7537C26.3796 15.7537 25.4941 16.6903 25.6258 17.0701C25.7565 17.4477 26.5274 18.3843 27.3304 18.9111C27.3304 18.9111 27.4792 20.0601 28.5285 21.1297C29.1549 21.768 29.7395 21.8839 30.2384 21.7766C30.4493 22.0888 31.1678 23.0308 32.3124 23.2368C32.3124 23.2368 32.1143 21.9161 32.2578 20.9183C32.3017 20.8947 32.3456 20.869 32.382 20.8325C32.5618 20.6534 34.6615 18.7137 36.2194 20.5868C36.2194 20.5868 35.5138 20.8497 35.2354 21.7358C34.957 22.6252 34.7932 24.8267 32.4805 23.4138C32.4805 23.4138 32.2835 24.6787 32.989 25.4361C32.989 25.4361 32.8905 26.7825 34.4152 27.5206C35.941 28.2609 37.0074 27.703 37.9914 28.1954C37.9914 28.1954 37.8929 26.1731 38.728 24.9415C39.5653 23.7088 40.7463 23.2979 41.3202 23.7764C41.893 24.2517 42.2549 26.0594 40.0407 27.9337C40.0407 27.9337 42.5825 28.2609 44.3213 26.9305C44.3213 26.9305 44.1051 29.2779 42.3502 31.267C48.7091 29.9002 53.4555 24.2356 53.4555 17.4552C53.4555 14.9287 52.7927 12.5566 51.6331 10.5043Z" fill="#231F20"/>
<path fill-rule="evenodd" clip-rule="evenodd" d="M41.4188 11.055C41.4188 11.055 39.7624 10.1206 39.0247 11.0883C38.3298 12.0013 38.7817 13.5644 38.3737 14.5418C38.362 14.531 38.347 14.5182 38.3352 14.5074C37.4165 13.6835 36.2859 15.0825 36.0717 15.4923C35.8597 15.9043 35.5803 15.9515 35.5803 15.9515C33.5631 16.3635 33.9892 14.737 33.3168 14.2446C32.6455 13.75 31.5127 14.4753 31.5127 14.4753C32.6444 14.2585 32.9067 15.0492 32.8746 15.3604C32.8414 15.6736 33.0706 16.5952 33.3821 17.1037C33.6937 17.6122 34.9571 17.2507 35.9904 17.3355C37.0236 17.4159 37.6135 18.6797 37.6135 18.6797C38.2367 17.1681 36.5643 16.4793 36.5643 16.4793C36.5643 16.4793 37.0525 15.5502 37.6296 15.87C39.4669 16.8881 39.0076 21.0132 39.0076 21.0132C40.5901 18.0328 39.8931 16.283 39.0676 15.2606C39.1714 14.3315 39.6414 11.4005 41.4188 11.055Z" fill="#231F20"/>
</svg>
