<svg width="62" height="66" viewBox="0 0 62 66" fill="none" xmlns="http://www.w3.org/2000/svg">
<path d="M5.57787 17.2648C5.57787 17.2648 4.39537 14.5398 3.76287 14.2973C3.13037 14.0548 1.77037 22.6548 2.45037 24.5048C2.45037 24.5048 5.97537 27.2773 6.55537 29.6873L8.66037 27.0123L10.0654 21.9898L5.57537 17.2648H5.57787Z" fill="url(#paint0_linear_302_1291)" stroke="#A3822E" stroke-width="0.075" stroke-miterlimit="10"/>
<path d="M6.30789 26.5049C6.30789 26.5049 4.35039 22.4199 4.21039 17.0774" stroke="#A3822E" stroke-width="0.025" stroke-miterlimit="10"/>
<path d="M56.2254 17.2648C56.2254 17.2648 57.4079 14.5398 58.0404 14.2973C58.6729 14.0548 60.0329 22.6548 59.3529 24.5048C59.3529 24.5048 55.8279 27.2773 55.2479 29.6873L53.1429 27.0123L51.7379 21.9898L56.2279 17.2648H56.2254Z" fill="url(#paint1_linear_302_1291)" stroke="#A3822E" stroke-width="0.075" stroke-miterlimit="10"/>
<path d="M55.4954 26.5049C55.4954 26.5049 57.4529 22.4199 57.5929 17.0774" stroke="#A3822E" stroke-width="0.025" stroke-miterlimit="10"/>
<path d="M12.5679 10.6324C12.5679 10.6324 11.0529 7.60986 10.3029 7.60986C9.5529 7.60986 7.7729 12.8124 8.5929 15.3674C9.4129 17.9224 10.5654 18.2149 10.2804 19.7899C9.9979 21.3649 14.8479 17.0549 14.8954 16.7024C14.9429 16.3499 14.6154 12.5774 14.6154 12.5774L12.5679 10.6324Z" fill="url(#paint2_linear_302_1291)" stroke="#A3822E" stroke-width="0.075" stroke-miterlimit="10"/>
<path d="M16.3603 4.35229C16.3603 4.35229 11.1279 5.60229 12.9529 16.3773C14.7779 27.1523 18.6203 14.8498 18.6203 14.8498C18.6203 14.8498 24.2678 10.3498 22.2528 9.2723C20.2378 8.1948 16.3603 4.35229 16.3603 4.35229Z" fill="url(#paint3_linear_302_1291)" stroke="#A3822E" stroke-width="0.075" stroke-miterlimit="10"/>
<path d="M12.9529 16.3772C12.9529 16.3772 14.7054 7.81974 18.8779 7.38724C23.0504 6.95474 23.7529 11.8822 23.7529 11.8822L14.9004 15.2497L12.9554 16.3772H12.9529Z" fill="url(#paint4_linear_302_1291)" stroke="#A3822E" stroke-width="0.075" stroke-miterlimit="10"/>
<path d="M9.21286 54.4848L6.30786 55.4398C6.30786 55.4398 8.60286 57.7823 10.5729 57.2898C12.5429 56.7973 15.0029 54.1398 15.0029 54.1398C15.0029 54.1398 15.2329 52.4523 14.9679 52.3673C14.7029 52.2823 9.34286 53.5623 9.34286 53.5623L9.21536 54.4848H9.21286Z" fill="url(#paint5_linear_302_1291)" stroke="#A3822E" stroke-width="0.075" stroke-miterlimit="10"/>
<path d="M5.93038 47.9272L2.20538 47.9997C2.20538 47.9997 5.12038 52.9522 8.63788 54.1622C8.63788 54.1622 10.1529 55.4472 12.9979 54.3472C15.8429 53.2472 16.4754 51.3597 16.4754 51.3597L11.3454 46.5322C11.3454 46.5322 8.19288 46.8872 7.96038 46.9197C7.72788 46.9522 5.93288 47.9272 5.93288 47.9272H5.93038Z" fill="url(#paint6_linear_302_1291)" stroke="#A3822E" stroke-width="0.075" stroke-miterlimit="10"/>
<path d="M9.45541 48.4972C9.45541 48.4972 4.70041 48.8897 2.48791 45.0222C0.272907 41.1547 0.625406 39.6447 0.625406 39.6447C0.625406 39.6447 0.450406 38.9072 3.23541 40.8647L9.73041 41.3322C9.73041 41.3322 10.0579 43.2072 10.0704 44.0097C10.0829 44.8122 10.5754 47.3072 10.5754 47.5547C10.5754 47.8022 9.46041 48.4997 9.46041 48.4997L9.45541 48.4972Z" fill="url(#paint7_linear_302_1291)" stroke="#A3822E" stroke-width="0.075" stroke-miterlimit="10"/>
<path d="M14.0279 53.0973C14.0279 53.0973 10.9554 51.5948 9.19789 48.0098C7.44039 44.4248 7.95539 43.3373 7.95539 43.3373L10.1604 42.9023C10.1604 42.9023 11.4479 44.2823 11.9754 45.5848C12.5029 46.8848 14.7204 49.7323 15.2479 50.1898C15.7729 50.6473 15.8079 52.1173 15.8079 52.1173L14.0279 53.0973Z" fill="url(#paint8_linear_302_1291)" stroke="#A3822E" stroke-width="0.075" stroke-miterlimit="10"/>
<path d="M2.76038 32.8924C2.76038 32.8924 0.835377 31.6299 0.0628774 31.6299C0.0628774 31.6299 -0.262123 34.9349 1.41288 38.1324C3.08538 41.3299 4.94538 42.9999 8.51538 43.4149C8.51538 43.4149 11.3479 38.2749 9.59038 36.6574C7.83288 35.0399 2.76288 32.8949 2.76288 32.8949L2.76038 32.8924Z" fill="url(#paint9_linear_302_1291)" stroke="#A3822E" stroke-width="0.075" stroke-miterlimit="10"/>
<path d="M6.55787 29.6873C6.55787 29.6873 6.62287 27.1048 1.65537 23.6848C1.65537 23.6848 -1.06213 31.2773 5.14787 34.9798L6.45037 35.8673L7.96037 32.4573L6.56037 29.6898L6.55787 29.6873Z" fill="url(#paint10_linear_302_1291)" stroke="#A3822E" stroke-width="0.075" stroke-miterlimit="10"/>
<path d="M10.5129 19.6772C10.5129 19.6772 10.4679 14.9197 6.30787 13.1147C6.30787 13.1147 3.52787 18.6222 8.82537 22.3472C8.82537 22.3472 10.7029 21.0772 10.5129 19.6772Z" fill="url(#paint11_linear_302_1291)" stroke="#A3822E" stroke-width="0.075" stroke-miterlimit="10"/>
<path d="M12.1854 52.7098C11.9479 52.7698 10.0454 52.4448 7.31788 51.0248C6.45538 50.5773 5.51288 50.0198 4.51288 49.3323" stroke="#A3822E" stroke-width="0.025" stroke-miterlimit="10"/>
<path d="M7.44288 46.5323C7.44288 46.5323 3.78788 44.2123 2.20538 41.3298" stroke="#A3822E" stroke-width="0.025" stroke-miterlimit="10"/>
<path d="M6.1654 39.995C6.1654 39.995 2.41041 37.6725 0.602905 33.21" stroke="#A3822E" stroke-width="0.025" stroke-miterlimit="10"/>
<path d="M5.57788 32.4549C5.57788 32.4549 2.94288 30.1524 2.20538 25.3699" stroke="#A3822E" stroke-width="0.025" stroke-miterlimit="10"/>
<path d="M8.38036 20.2124L6.74036 14.2974" stroke="#A3822E" stroke-width="0.025" stroke-miterlimit="10"/>
<path d="M49.2354 10.6324C49.2354 10.6324 50.7504 7.60986 51.5004 7.60986C52.2504 7.60986 54.0304 12.8124 53.2104 15.3674C52.3904 17.9224 51.2379 18.2149 51.5229 19.7899C51.8054 21.3649 46.9554 17.0549 46.9079 16.7024C46.8604 16.3499 47.1879 12.5774 47.1879 12.5774L49.2354 10.6324Z" fill="url(#paint12_linear_302_1291)" stroke="#A3822E" stroke-width="0.075" stroke-miterlimit="10"/>
<path d="M45.4429 4.35229C45.4429 4.35229 50.6754 5.60229 48.8504 16.3773C47.0254 27.1523 43.1829 14.8498 43.1829 14.8498C43.1829 14.8498 37.5354 10.3498 39.5504 9.2723C41.5654 8.1948 45.4429 4.35229 45.4429 4.35229Z" fill="url(#paint13_linear_302_1291)" stroke="#A3822E" stroke-width="0.075" stroke-miterlimit="10"/>
<path d="M48.8504 16.3772C48.8504 16.3772 47.0979 7.81974 42.9254 7.38724C38.7529 6.95474 38.0504 11.8822 38.0504 11.8822L46.9029 15.2497L48.8478 16.3772H48.8504Z" fill="url(#paint14_linear_302_1291)" stroke="#A3822E" stroke-width="0.075" stroke-miterlimit="10"/>
<path d="M52.5904 54.4848L55.4954 55.4398C55.4954 55.4398 53.2004 57.7823 51.2304 57.2898C49.2629 56.7948 46.8004 54.1398 46.8004 54.1398C46.8004 54.1398 46.5704 52.4523 46.8354 52.3673C47.1004 52.2823 52.4604 53.5623 52.4604 53.5623L52.5879 54.4848H52.5904Z" fill="url(#paint15_linear_302_1291)" stroke="#A3822E" stroke-width="0.075" stroke-miterlimit="10"/>
<path d="M55.8729 47.9272L59.5979 47.9997C59.5979 47.9997 56.6829 52.9522 53.1654 54.1622C53.1654 54.1622 51.6504 55.4472 48.8054 54.3472C45.9604 53.2472 45.3279 51.3597 45.3279 51.3597L50.4579 46.5322C50.4579 46.5322 53.6104 46.8872 53.8429 46.9197C54.0754 46.9522 55.8704 47.9272 55.8704 47.9272H55.8729Z" fill="url(#paint16_linear_302_1291)" stroke="#A3822E" stroke-width="0.075" stroke-miterlimit="10"/>
<path d="M52.3479 48.4972C52.3479 48.4972 57.1029 48.8897 59.3154 45.0222C61.5304 41.1547 61.1779 39.6447 61.1779 39.6447C61.1779 39.6447 61.3529 38.9072 58.5679 40.8647L52.0729 41.3322C52.0729 41.3322 51.7454 43.2072 51.7329 44.0097C51.7204 44.8122 51.2279 47.3072 51.2279 47.5547C51.2279 47.8022 52.3429 48.4997 52.3429 48.4997L52.3479 48.4972Z" fill="url(#paint17_linear_302_1291)" stroke="#A3822E" stroke-width="0.075" stroke-miterlimit="10"/>
<path d="M47.7729 53.0973C47.7729 53.0973 50.8454 51.5948 52.6029 48.0098C54.3604 44.4248 53.8454 43.3373 53.8454 43.3373L51.6404 42.9023C51.6404 42.9023 50.3529 44.2823 49.8254 45.5848C49.2979 46.8848 47.0804 49.7323 46.5529 50.1898C46.0254 50.6473 45.9929 52.1173 45.9929 52.1173L47.7729 53.0973Z" fill="url(#paint18_linear_302_1291)" stroke="#A3822E" stroke-width="0.075" stroke-miterlimit="10"/>
<path d="M59.0429 32.8924C59.0429 32.8924 60.9679 31.6299 61.7404 31.6299C61.7404 31.6299 62.0654 34.9349 60.3904 38.1324C58.7179 41.3299 56.8579 42.9999 53.2879 43.4149C53.2879 43.4149 50.4554 38.2749 52.2129 36.6574C53.9704 35.0399 59.0404 32.8949 59.0404 32.8949L59.0429 32.8924Z" fill="url(#paint19_linear_302_1291)" stroke="#A3822E" stroke-width="0.075" stroke-miterlimit="10"/>
<path d="M55.2454 29.6873C55.2454 29.6873 55.1804 27.1048 60.1479 23.6848C60.1479 23.6848 62.8654 31.2773 56.6554 34.9798L55.3529 35.8673L53.8429 32.4573L55.2429 29.6898L55.2454 29.6873Z" fill="url(#paint20_linear_302_1291)" stroke="#A3822E" stroke-width="0.075" stroke-miterlimit="10"/>
<path d="M51.2904 19.6772C51.2904 19.6772 51.3354 14.9197 55.4954 13.1147C55.4954 13.1147 58.2754 18.6222 52.9779 22.3472C52.9779 22.3472 51.1004 21.0772 51.2904 19.6772Z" fill="url(#paint21_linear_302_1291)" stroke="#A3822E" stroke-width="0.075" stroke-miterlimit="10"/>
<path d="M15.6454 51.4848C15.4029 51.3748 10.0204 58.5023 10.0204 58.5023C10.0204 58.5023 16.6404 65.7973 31.5154 65.7973C46.3904 65.7973 51.6854 57.8448 51.6854 57.8448L45.9204 50.8523C45.9204 50.8523 35.9379 60.7473 15.6429 51.4848H15.6454Z" fill="url(#paint22_linear_302_1291)" stroke="#A3822E" stroke-width="0.075" stroke-miterlimit="10"/>
<path d="M15.5754 57.9423L15.6304 57.9798C15.6204 58.2423 15.6504 58.4648 15.7204 58.6473C15.7929 58.8298 15.9229 58.9848 16.1154 59.1148C16.2554 59.2098 16.4054 59.2598 16.5654 59.2648C16.7254 59.2698 16.8779 59.2348 17.0229 59.1598C17.1679 59.0848 17.2879 58.9773 17.3804 58.8373C17.5279 58.6173 17.5704 58.4098 17.5029 58.2173C17.4354 58.0248 17.3004 57.7823 17.0979 57.4873C16.8954 57.1923 16.7654 56.9298 16.7104 56.7023C16.6554 56.4748 16.7179 56.2248 16.9004 55.9548C17.1204 55.6273 17.4029 55.4498 17.7454 55.4248C18.0879 55.3998 18.4304 55.5023 18.7729 55.7323C18.9104 55.8248 19.0354 55.9398 19.1454 56.0748C19.2554 56.2098 19.3279 56.3523 19.3604 56.4973C19.2904 56.5398 19.1454 56.6548 18.9229 56.8373L18.8704 56.8023C18.9129 56.6223 18.9054 56.4523 18.8454 56.2923C18.7854 56.1323 18.6779 55.9998 18.5229 55.8948C18.4004 55.8123 18.2704 55.7623 18.1329 55.7448C17.9954 55.7273 17.8654 55.7448 17.7404 55.8023C17.6154 55.8573 17.5129 55.9448 17.4329 56.0648C17.2854 56.2823 17.2454 56.4848 17.3104 56.6773C17.3754 56.8698 17.5104 57.1148 17.7179 57.4173C17.9254 57.7198 18.0579 57.9823 18.1154 58.2048C18.1729 58.4273 18.1154 58.6648 17.9479 58.9173C17.8229 59.1048 17.6754 59.2498 17.5054 59.3548C17.3379 59.4598 17.1554 59.5248 16.9629 59.5473C16.7704 59.5698 16.5754 59.5573 16.3804 59.5048C16.1854 59.4523 15.9954 59.3648 15.8129 59.2423C15.6704 59.1473 15.5304 59.0123 15.3929 58.8348C15.2554 58.6598 15.1754 58.4973 15.1529 58.3473C15.2729 58.2598 15.4129 58.1248 15.5729 57.9423H15.5754Z" fill="black"/>
<path d="M21.0229 59.7623L20.3679 61.0998C20.3304 61.1748 20.3054 61.2323 20.2929 61.2698C20.2804 61.3073 20.2779 61.3448 20.2929 61.3773C20.3054 61.4123 20.3354 61.4398 20.3829 61.4648C20.4254 61.4848 20.4854 61.5048 20.5654 61.5223L20.5029 61.6498C20.4229 61.6498 20.3554 61.6373 20.2979 61.6223C20.2304 61.6023 20.1654 61.5798 20.1054 61.5498C19.9929 61.4898 19.9129 61.4148 19.8679 61.3273C19.8229 61.2398 19.8229 61.1273 19.8679 60.9973L19.7904 61.0248C19.4304 61.1498 19.0854 61.1298 18.7579 60.9698C18.5479 60.8673 18.3979 60.7123 18.3129 60.5073C18.2254 60.3023 18.2329 60.0948 18.3354 59.8898C18.4354 59.6873 18.5604 59.5523 18.7129 59.4873C18.8654 59.4223 19.0229 59.4023 19.1854 59.4273C19.3479 59.4523 19.5579 59.5048 19.8104 59.5823C20.0054 59.6398 20.1479 59.6773 20.2354 59.6923C20.3229 59.7073 20.3979 59.7023 20.4554 59.6748C20.5129 59.6473 20.5654 59.5873 20.6104 59.4948C20.7154 59.2798 20.7379 59.0848 20.6779 58.9073C20.6179 58.7323 20.4804 58.5923 20.2679 58.4873C20.1429 58.4248 20.0179 58.3923 19.8979 58.3898C19.7754 58.3873 19.6704 58.3998 19.5829 58.4323C19.4954 58.4648 19.4279 58.5023 19.3854 58.5473L19.3204 58.5148L19.4779 58.1948C19.8904 58.1348 20.2529 58.1798 20.5629 58.3323C20.8679 58.4823 21.0629 58.6773 21.1404 58.9148C21.2204 59.1548 21.1804 59.4348 21.0229 59.7573V59.7623ZM19.9604 60.7648L20.3729 59.9223L20.1504 59.8648C20.0129 59.8248 19.8829 59.7898 19.7654 59.7623C19.6454 59.7323 19.5304 59.7173 19.4154 59.7123C19.3029 59.7073 19.1929 59.7298 19.0929 59.7798C18.9904 59.8298 18.9104 59.9173 18.8504 60.0398C18.7629 60.2198 18.7454 60.3798 18.7979 60.5198C18.8529 60.6598 18.9679 60.7723 19.1504 60.8598C19.2229 60.8948 19.3129 60.9123 19.4254 60.9098C19.5379 60.9098 19.6354 60.8948 19.7204 60.8648C19.7479 60.8548 19.7779 60.8448 19.8104 60.8373C19.8429 60.8273 19.8754 60.8148 19.9079 60.7998C19.9404 60.7848 19.9579 60.7723 19.9629 60.7623L19.9604 60.7648Z" fill="black"/>
<path d="M21.5329 62.2373L22.3554 59.2773C22.4054 59.2948 22.4529 59.3123 22.4929 59.3273C22.5329 59.3423 22.5679 59.3548 22.5979 59.3623C22.6254 59.3698 22.6604 59.3773 22.7029 59.3848C22.7454 59.3923 22.7929 59.4023 22.8504 59.4123L22.7029 59.9448C22.8079 59.8423 22.9154 59.7623 23.0229 59.7023C23.1329 59.6423 23.2504 59.6073 23.3779 59.5923C23.5054 59.5798 23.6379 59.5923 23.7754 59.6298C23.9829 59.6873 24.1554 59.7948 24.2904 59.9498C24.4279 60.1073 24.5004 60.2873 24.5079 60.4948C24.8654 60.1548 25.2454 60.0398 25.6504 60.1523C26.0154 60.2548 26.2454 60.4248 26.3404 60.6673C26.4354 60.9098 26.4254 61.2323 26.3154 61.6348L25.8179 63.4248C25.7779 63.4098 25.7454 63.3973 25.7179 63.3873C25.6904 63.3773 25.6704 63.3698 25.6504 63.3623C25.6304 63.3548 25.6079 63.3473 25.5729 63.3373C25.5354 63.3273 25.5104 63.3198 25.4979 63.3173C25.4854 63.3148 25.4629 63.3098 25.4279 63.3048C25.3929 63.2973 25.3554 63.2923 25.3179 63.2873L25.7754 61.6398C25.8329 61.4298 25.8654 61.2473 25.8729 61.0898C25.8804 60.9323 25.8479 60.7948 25.7704 60.6773C25.6954 60.5598 25.5604 60.4723 25.3704 60.4198C25.0904 60.3423 24.8754 60.3848 24.7254 60.5473C24.5754 60.7123 24.4604 60.9373 24.3804 61.2248L23.9154 62.8973C23.8754 62.8823 23.8429 62.8698 23.8179 62.8598C23.7929 62.8498 23.7704 62.8423 23.7529 62.8348C23.7354 62.8273 23.7104 62.8198 23.6729 62.8098C23.6354 62.7998 23.6054 62.7923 23.5879 62.7898C23.5704 62.7873 23.5454 62.7823 23.5179 62.7773C23.4904 62.7723 23.4579 62.7648 23.4204 62.7598L23.9229 60.9448C24.0054 60.6498 24.0129 60.4198 23.9454 60.2498C23.8804 60.0798 23.7329 59.9648 23.5054 59.9023C23.3004 59.8448 23.1354 59.8423 23.0054 59.8898C22.8754 59.9373 22.7754 60.0198 22.7004 60.1373C22.6279 60.2523 22.5654 60.3973 22.5179 60.5673L22.0179 62.3698C21.9779 62.3548 21.9454 62.3423 21.9204 62.3323C21.8929 62.3223 21.8729 62.3148 21.8554 62.3073C21.8379 62.2998 21.8129 62.2923 21.7754 62.2823C21.7454 62.2748 21.7079 62.2648 21.6604 62.2573C21.6129 62.2473 21.5679 62.2398 21.5229 62.2323L21.5329 62.2373Z" fill="black"/>
<path d="M27.7954 63.0623L27.6329 65.2648C27.5904 65.2573 27.5579 65.2523 27.5304 65.2473C27.5029 65.2423 27.4804 65.2398 27.4629 65.2348C27.4454 65.2323 27.4179 65.2273 27.3804 65.2248C27.3404 65.2223 27.3104 65.2198 27.2929 65.2223C27.2754 65.2223 27.2504 65.2223 27.2229 65.2223C27.1954 65.2223 27.1604 65.2223 27.1229 65.2223L27.4679 60.5198C27.5229 60.5273 27.5704 60.5348 27.6154 60.5423C27.6604 60.5498 27.6954 60.5548 27.7254 60.5573C27.7529 60.5573 27.7879 60.5598 27.8304 60.5573C27.8729 60.5548 27.9229 60.5573 27.9829 60.5573L27.9354 61.2048H27.9479C28.0679 61.0123 28.2029 60.8548 28.3529 60.7373C28.5029 60.6198 28.7454 60.5748 29.0829 60.5998C29.2829 60.6148 29.4604 60.6648 29.6129 60.7548C29.7679 60.8423 29.8954 60.9598 29.9979 61.1073C30.1004 61.2548 30.1754 61.4198 30.2179 61.5973C30.2629 61.7748 30.2754 61.9648 30.2629 62.1623C30.2254 62.6823 30.0679 63.0823 29.7904 63.3673C29.5129 63.6498 29.1679 63.7773 28.7529 63.7473C28.3154 63.7148 28.0004 63.4848 27.8129 63.0598H27.8004L27.7954 63.0623ZM27.8604 62.1773C27.8329 62.5423 27.8904 62.8448 28.0304 63.0848C28.1704 63.3248 28.3979 63.4573 28.7104 63.4798C28.9179 63.4948 29.0904 63.4448 29.2304 63.3323C29.3704 63.2173 29.4779 63.0598 29.5504 62.8573C29.6254 62.6548 29.6729 62.4198 29.6929 62.1548C29.7104 61.9273 29.6979 61.7148 29.6554 61.5198C29.6129 61.3248 29.5304 61.1623 29.4079 61.0323C29.2854 60.9023 29.1154 60.8323 28.9004 60.8173C28.6704 60.7998 28.4804 60.8598 28.3304 60.9948C28.1804 61.1298 28.0679 61.3073 27.9954 61.5223C27.9229 61.7373 27.8779 61.9573 27.8604 62.1798V62.1773Z" fill="black"/>
<path d="M30.9379 62.2374C30.9179 62.0099 30.9429 61.7999 31.0079 61.6049C31.0729 61.4099 31.1754 61.2374 31.3129 61.0849C31.4504 60.9349 31.6154 60.8149 31.8029 60.7249C31.9904 60.6349 32.2029 60.5824 32.4379 60.5624C32.7304 60.5399 32.9929 60.5799 33.2279 60.6899C33.4629 60.7974 33.6529 60.9649 33.7954 61.1924C33.9379 61.4199 34.0254 61.6899 34.0504 62.0049C34.0679 62.2099 34.0504 62.4099 33.9954 62.6074C33.9429 62.8049 33.8529 62.9849 33.7279 63.1474C33.6029 63.3099 33.4429 63.4424 33.2479 63.5424C33.0554 63.6424 32.8304 63.7049 32.5779 63.7249C32.3004 63.7474 32.0404 63.7049 31.8004 63.5949C31.5579 63.4849 31.3604 63.3149 31.2079 63.0799C31.0529 62.8449 30.9629 62.5649 30.9379 62.2374ZM32.4454 60.7599C32.1904 60.7824 31.9904 60.8674 31.8454 61.0199C31.6979 61.1724 31.6004 61.3599 31.5504 61.5849C31.5004 61.8099 31.4854 62.0449 31.5054 62.2924C31.5254 62.5249 31.5754 62.7349 31.6604 62.9274C31.7454 63.1199 31.8654 63.2724 32.0279 63.3849C32.1879 63.4974 32.3829 63.5449 32.6129 63.5274C32.8404 63.5074 33.0204 63.4149 33.1579 63.2449C33.2954 63.0749 33.3854 62.8799 33.4354 62.6549C33.4829 62.4299 33.5004 62.2174 33.4854 62.0224C33.4729 61.8624 33.4429 61.7049 33.4004 61.5549C33.3554 61.4049 33.2929 61.2674 33.2079 61.1424C33.1229 61.0174 33.0179 60.9199 32.8904 60.8499C32.7629 60.7799 32.6154 60.7499 32.4454 60.7649V60.7599Z" fill="black"/>
<path d="M37.4004 62.1899L37.4679 62.5199C37.3254 62.6724 37.1704 62.8024 37.0004 62.9099C36.8304 63.0149 36.6529 63.0899 36.4729 63.1299C36.1854 63.1949 35.9154 63.1874 35.6629 63.1149C35.4104 63.0399 35.1979 62.9024 35.0204 62.6949C34.8454 62.4899 34.7204 62.2299 34.6504 61.9124C34.5854 61.6174 34.5829 61.3424 34.6404 61.0849C34.6979 60.8274 34.8229 60.6074 35.0104 60.4249C35.1979 60.2424 35.4429 60.1199 35.7454 60.0524C35.9154 60.0149 36.0829 60.0074 36.2504 60.0324C36.4179 60.0549 36.5729 60.1124 36.7154 60.1999C36.8579 60.2874 36.9829 60.4124 37.0904 60.5724C37.1979 60.7349 37.2804 60.9324 37.3304 61.1699C37.3379 61.1974 37.3429 61.2224 37.3454 61.2424C37.3479 61.2624 37.3529 61.2849 37.3554 61.3099C36.9279 61.3899 36.5029 61.4799 36.0804 61.5724L35.1954 61.7674C35.1954 61.7974 35.2054 61.8424 35.2179 61.8999C35.2529 62.0574 35.3104 62.2049 35.3879 62.3349C35.4654 62.4674 35.5654 62.5774 35.6829 62.6649C35.8004 62.7524 35.9379 62.8124 36.0879 62.8424C36.2379 62.8724 36.3979 62.8674 36.5654 62.8299C36.8829 62.7599 37.1604 62.5474 37.3979 62.1899H37.4004ZM35.1454 61.5324L36.8129 61.1649C36.7329 60.8449 36.6129 60.5949 36.4529 60.4174C36.2929 60.2399 36.0704 60.1824 35.7904 60.2449C35.6054 60.2874 35.4604 60.3724 35.3554 60.5049C35.2504 60.6349 35.1829 60.7924 35.1504 60.9749C35.1179 61.1574 35.1179 61.3449 35.1479 61.5349L35.1454 61.5324Z" fill="black"/>
<path d="M38.6479 62.4999L37.6979 59.5799C37.7504 59.5674 37.8004 59.5549 37.8429 59.5449C37.8854 59.5349 37.9229 59.5249 37.9504 59.5174C37.9754 59.5099 38.0079 59.4949 38.0479 59.4799C38.0879 59.4624 38.1354 59.4424 38.1879 59.4199L38.3879 60.0324L38.3929 59.9474C38.5104 59.4874 38.7029 59.2124 38.9754 59.1249C39.0554 59.0999 39.1204 59.0874 39.1729 59.0924L39.2554 59.6324C39.2354 59.6324 39.1879 59.6324 39.1129 59.6199C39.0379 59.6074 38.9779 59.6124 38.9329 59.6274C38.8604 59.6499 38.7929 59.6874 38.7304 59.7349C38.6679 59.7849 38.6204 59.8424 38.5929 59.9074C38.5329 60.0524 38.5054 60.1824 38.5154 60.2974C38.5254 60.4124 38.5604 60.5649 38.6229 60.7549L39.1379 62.3349C39.0979 62.3449 39.0629 62.3524 39.0354 62.3574C39.0079 62.3649 38.9854 62.3699 38.9654 62.3724C38.9479 62.3749 38.9204 62.3849 38.8879 62.3949C38.8504 62.4074 38.8254 62.4149 38.8154 62.4199C38.8054 62.4249 38.7829 62.4324 38.7504 62.4474C38.7179 62.4599 38.6829 62.4749 38.6504 62.4924L38.6479 62.4999Z" fill="black"/>
<path d="M40.9004 61.7373L39.6854 58.9173C39.7379 58.8998 39.7829 58.8848 39.8254 58.8698C39.8679 58.8573 39.9029 58.8448 39.9279 58.8323C39.9529 58.8198 39.9854 58.8048 40.0229 58.7848C40.0604 58.7648 40.1054 58.7398 40.1579 58.7123L40.3904 59.2498C40.4429 58.7748 40.6754 58.4473 41.0904 58.2673C41.4304 58.1198 41.7129 58.1098 41.9404 58.2298C42.1679 58.3523 42.3654 58.6098 42.5354 59.0073L43.2704 60.7123C43.2304 60.7248 43.1979 60.7348 43.1704 60.7448C43.1429 60.7548 43.1204 60.7623 43.1054 60.7673C43.0879 60.7723 43.0629 60.7823 43.0279 60.7973C42.9904 60.8123 42.9654 60.8248 42.9479 60.8348C42.9304 60.8448 42.9104 60.8548 42.8854 60.8698C42.8604 60.8823 42.8304 60.8998 42.7979 60.9173L42.1204 59.3473C42.0329 59.1448 41.9429 58.9823 41.8454 58.8548C41.7504 58.7273 41.6354 58.6423 41.5029 58.6023C41.3704 58.5598 41.2179 58.5773 41.0429 58.6523C40.7529 58.7773 40.5954 58.9623 40.5654 59.2073C40.5379 59.4523 40.6104 59.7723 40.7804 60.1673L41.3704 61.5348C41.3304 61.5473 41.2979 61.5573 41.2704 61.5673C41.2429 61.5773 41.2204 61.5848 41.2029 61.5898C41.1854 61.5948 41.1579 61.6048 41.1254 61.6198C41.0879 61.6348 41.0654 61.6448 41.0554 61.6523C41.0454 61.6573 41.0254 61.6698 40.9929 61.6873C40.9604 61.7048 40.9279 61.7223 40.8954 61.7398L40.9004 61.7373Z" fill="black"/>
<path d="M45.3104 57.3324L46.0279 58.6374C46.0679 58.7099 46.1004 58.7649 46.1254 58.7974C46.1504 58.8299 46.1804 58.8524 46.2129 58.8624C46.2479 58.8724 46.2879 58.8624 46.3354 58.8374C46.3754 58.8149 46.4254 58.7774 46.4854 58.7224L46.5529 58.8474C46.5054 58.9124 46.4579 58.9624 46.4154 58.9974C46.3604 59.0424 46.3054 59.0799 46.2454 59.1124C46.1329 59.1699 46.0254 59.1924 45.9254 59.1799C45.8254 59.1674 45.7354 59.1024 45.6554 58.9899L45.6354 59.0699C45.5304 59.4349 45.3179 59.7074 44.9979 59.8824C44.7929 59.9949 44.5804 60.0274 44.3629 59.9824C44.1454 59.9349 43.9804 59.8099 43.8704 59.6099C43.7604 59.4124 43.7229 59.2324 43.7579 59.0699C43.7929 58.9074 43.8654 58.7674 43.9804 58.6499C44.0929 58.5299 44.2554 58.3899 44.4679 58.2274C44.6279 58.1024 44.7404 58.0074 44.8029 57.9424C44.8654 57.8799 44.9029 57.8149 44.9154 57.7524C44.9279 57.6899 44.9079 57.6124 44.8579 57.5224C44.7429 57.3124 44.5954 57.1799 44.4179 57.1274C44.2404 57.0749 44.0479 57.1074 43.8379 57.2224C43.7154 57.2899 43.6179 57.3724 43.5429 57.4699C43.4704 57.5674 43.4204 57.6624 43.3979 57.7524C43.3729 57.8424 43.3679 57.9199 43.3779 57.9799L43.3154 58.0149L43.1429 57.7024C43.3304 57.3299 43.5754 57.0599 43.8804 56.8924C44.1779 56.7274 44.4479 56.6824 44.6904 56.7549C44.9304 56.8274 45.1379 57.0199 45.3129 57.3349L45.3104 57.3324ZM45.5179 58.7799L45.0654 57.9574L44.8904 58.1074C44.7779 58.1974 44.6754 58.2824 44.5829 58.3624C44.4904 58.4424 44.4104 58.5274 44.3404 58.6199C44.2704 58.7124 44.2279 58.8124 44.2104 58.9249C44.1929 59.0374 44.2179 59.1524 44.2854 59.2749C44.3829 59.4499 44.5029 59.5574 44.6479 59.5924C44.7929 59.6274 44.9529 59.5974 45.1304 59.5024C45.2004 59.4649 45.2654 59.3999 45.3304 59.3074C45.3954 59.2149 45.4379 59.1274 45.4629 59.0424C45.4704 59.0149 45.4804 58.9849 45.4904 58.9524C45.5004 58.9199 45.5104 58.8874 45.5154 58.8499C45.5204 58.8149 45.5204 58.7924 45.5154 58.7824L45.5179 58.7799Z" fill="black"/>
<path d="M19.7804 11.5073C19.7804 11.5073 19.0079 5.68732 16.2679 4.34982C16.2679 4.34982 30.6104 -5.35268 45.4429 4.34982C45.4429 4.34982 41.5279 7.97232 41.6929 11.0123L19.7804 11.5073Z" fill="url(#paint23_linear_302_1291)" stroke="#A3822E" stroke-width="0.075" stroke-miterlimit="10"/>
<path d="M23.7629 7.78246L22.7754 2.84246L24.1954 2.55746C24.5579 2.48496 24.8654 2.45746 25.1154 2.47246C25.3654 2.48996 25.5654 2.55996 25.7154 2.68246C25.8654 2.80496 25.9654 2.98996 26.0129 3.23496C26.0454 3.39996 26.0479 3.55746 26.0179 3.70746C25.9879 3.85746 25.9329 3.99746 25.8504 4.12996C25.7679 4.26246 25.6654 4.37746 25.5429 4.47996C25.4204 4.57996 25.2779 4.66996 25.1204 4.74746C25.2729 4.72496 25.4329 4.71996 25.5979 4.73246C25.7629 4.74496 25.9204 4.78246 26.0654 4.84246C26.2129 4.90246 26.3429 4.99746 26.4529 5.12496C26.5629 5.25246 26.6379 5.41746 26.6804 5.61996C26.7829 6.13496 26.6479 6.58746 26.2729 6.97496C26.1629 7.08496 26.0279 7.17996 25.8654 7.25746C25.7054 7.33746 25.5429 7.39746 25.3829 7.43996C25.2204 7.48246 25.0279 7.52496 24.7979 7.57246L23.7654 7.77996L23.7629 7.78246ZM23.4654 2.98496L23.8479 4.89996L24.1454 4.83996C24.3354 4.80246 24.5004 4.75746 24.6354 4.70996C24.7704 4.66246 24.9029 4.59496 25.0254 4.50496C25.1854 4.38496 25.2979 4.23996 25.3654 4.06996C25.4304 3.89996 25.4454 3.71496 25.4054 3.51746C25.3604 3.29746 25.2779 3.13246 25.1554 3.01996C25.0329 2.90746 24.8754 2.84246 24.6854 2.82496C24.4954 2.80746 24.2654 2.82496 23.9979 2.87996L23.4654 2.98746V2.98496ZM23.9029 5.16996L24.3454 7.38746L25.0329 7.24996C25.2729 7.20246 25.4729 7.11246 25.6379 6.97996C25.8029 6.84746 25.9204 6.68496 25.9879 6.49246C26.0554 6.29996 26.0679 6.09746 26.0254 5.88496C25.9454 5.48246 25.7579 5.22746 25.4654 5.11496C25.1704 5.00496 24.7829 4.99496 24.3029 5.09246L23.8979 5.17246L23.9029 5.16996Z" fill="black"/>
<path d="M30.2654 4.6148L30.3579 6.3273C30.3629 6.4248 30.3704 6.4948 30.3779 6.5423C30.3854 6.5898 30.4054 6.6248 30.4354 6.6523C30.4654 6.6798 30.5129 6.6923 30.5754 6.6873C30.6279 6.6848 30.7004 6.6698 30.7904 6.6423L30.7979 6.8048C30.7154 6.8473 30.6429 6.8773 30.5779 6.8923C30.5004 6.9098 30.4204 6.9223 30.3454 6.9273C30.1979 6.9298 30.0779 6.8998 29.9804 6.8373C29.8854 6.7748 29.8229 6.6623 29.7954 6.5048L29.7329 6.5773C29.4404 6.9023 29.0829 7.0773 28.6654 7.0998C28.3954 7.1148 28.1604 7.0423 27.9579 6.8848C27.7554 6.7273 27.6479 6.5148 27.6329 6.2498C27.6204 5.9898 27.6704 5.7848 27.7854 5.6348C27.9004 5.4848 28.0479 5.3748 28.2254 5.3098C28.4029 5.2448 28.6404 5.1773 28.9404 5.1148C29.1679 5.0648 29.3329 5.0223 29.4279 4.9873C29.5254 4.9523 29.5954 4.9048 29.6379 4.8448C29.6829 4.7848 29.7004 4.6948 29.6954 4.5773C29.6804 4.2998 29.5929 4.0923 29.4354 3.9498C29.2779 3.8073 29.0604 3.7448 28.7879 3.7598C28.6254 3.7673 28.4829 3.8048 28.3604 3.8698C28.2354 3.9348 28.1379 4.0073 28.0679 4.0898C27.9979 4.1723 27.9529 4.2473 27.9354 4.3148L27.8529 4.3198L27.8304 3.9098C28.2129 3.6173 28.6029 3.4598 28.9979 3.4398C29.3879 3.4198 29.6929 3.5073 29.9054 3.7023C30.1204 3.8973 30.2379 4.2023 30.2604 4.6173L30.2654 4.6148ZM29.7579 6.2173L29.7004 5.1398L29.4429 5.2073C29.2804 5.2448 29.1329 5.2823 28.9979 5.3198C28.8629 5.3573 28.7354 5.4048 28.6179 5.4648C28.5004 5.5248 28.4054 5.6073 28.3304 5.7148C28.2579 5.8223 28.2229 5.9548 28.2329 6.1148C28.2454 6.3448 28.3179 6.5148 28.4504 6.6248C28.5829 6.7348 28.7654 6.7848 28.9954 6.7723C29.0879 6.7673 29.1879 6.7323 29.3004 6.6698C29.4129 6.6073 29.5029 6.5373 29.5729 6.4598C29.5954 6.4348 29.6204 6.4073 29.6479 6.3798C29.6754 6.3523 29.7004 6.3223 29.7229 6.2873C29.7454 6.2548 29.7579 6.2323 29.7579 6.2198V6.2173Z" fill="black"/>
<path d="M31.4329 6.94242L31.7129 3.41992C31.7754 3.42992 31.8304 3.43992 31.8804 3.44742C31.9304 3.45492 31.9729 3.46242 32.0054 3.46492C32.0354 3.46492 32.0779 3.46742 32.1254 3.46492C32.1754 3.46492 32.2329 3.46492 32.3004 3.46492L32.2454 4.13742C32.5554 3.68242 32.9679 3.47492 33.4879 3.51492C33.9129 3.54992 34.2079 3.68742 34.3729 3.93492C34.5379 4.17992 34.6004 4.54992 34.5604 5.04492L34.3904 7.17492C34.3429 7.16742 34.3029 7.15992 34.2704 7.15492C34.2379 7.14992 34.2129 7.14492 34.1929 7.14242C34.1729 7.13992 34.1404 7.13492 34.0979 7.13242C34.0529 7.12992 34.0179 7.12742 33.9979 7.12742C33.9779 7.12742 33.9479 7.12742 33.9154 7.12742C33.8829 7.12742 33.8454 7.12742 33.8004 7.12742L33.9579 5.16742C33.9779 4.91492 33.9729 4.69992 33.9454 4.51742C33.9179 4.33492 33.8454 4.18992 33.7329 4.07492C33.6204 3.95992 33.4554 3.89492 33.2404 3.87742C32.8779 3.84742 32.6179 3.94992 32.4579 4.18492C32.2979 4.41992 32.1979 4.78242 32.1579 5.27742L32.0229 6.98742C31.9754 6.97992 31.9354 6.97242 31.9029 6.96742C31.8704 6.96242 31.8454 6.95742 31.8229 6.95492C31.8004 6.95242 31.7704 6.94742 31.7304 6.94492C31.6854 6.94242 31.6554 6.93992 31.6429 6.93992C31.6304 6.93992 31.6029 6.93992 31.5604 6.93992C31.5179 6.93992 31.4779 6.93992 31.4329 6.93992V6.94242Z" fill="black"/>
<path d="M37.1104 2.0324L36.4129 5.2724C36.3929 5.3699 36.3804 5.4299 36.3804 5.4574C36.3804 5.4849 36.3854 5.5049 36.3979 5.5174C36.5329 5.5449 36.7729 5.4499 37.1179 5.2249L37.6629 4.8674L38.3604 4.3674C38.4204 4.3849 38.4754 4.4024 38.5229 4.4174C38.5704 4.4324 38.6129 4.4449 38.6454 4.4499C38.6704 4.4549 38.7079 4.4599 38.7579 4.4674C38.8079 4.4724 38.8654 4.4799 38.9329 4.4899L38.9204 4.5424C38.8304 4.5949 38.7529 4.6374 38.6829 4.6724C38.6154 4.7074 38.4604 4.7874 38.2204 4.9149C37.9804 5.0424 37.7429 5.1749 37.5129 5.3074C37.2829 5.4399 37.1204 5.5349 37.0279 5.5924C37.0854 5.6974 37.1654 5.8399 37.2654 6.0249C37.3654 6.2099 37.4804 6.4249 37.6129 6.6699C37.7454 6.9149 37.8679 7.1374 37.9779 7.3399C38.0879 7.5424 38.1954 7.7374 38.3004 7.9299L38.2929 7.9649C38.2329 7.9474 38.1854 7.9324 38.1479 7.9224C38.1129 7.9124 38.0829 7.9024 38.0554 7.8949C38.0304 7.8874 37.9929 7.8774 37.9429 7.8674C37.8879 7.8549 37.8504 7.8474 37.8329 7.8449C37.8154 7.8424 37.7829 7.8374 37.7329 7.8299C37.6829 7.8224 37.6304 7.8149 37.5779 7.8099C37.5004 7.6424 37.3704 7.3899 37.1854 7.0499C37.0004 6.7099 36.7879 6.3224 36.5454 5.8849C36.4929 5.7949 36.4454 5.7449 36.4029 5.7349C36.3429 5.7224 36.2929 5.8024 36.2529 5.9799L35.9354 7.4549C35.8879 7.4399 35.8504 7.4274 35.8204 7.4199C35.7904 7.4099 35.7629 7.4024 35.7429 7.3949C35.7229 7.3874 35.6904 7.3799 35.6529 7.3724C35.6079 7.3624 35.5804 7.3574 35.5654 7.3549C35.5529 7.3549 35.5254 7.3499 35.4854 7.3449C35.4454 7.3399 35.4029 7.3349 35.3604 7.3299L36.5304 1.8999C36.5904 1.9174 36.6454 1.9349 36.6929 1.9499C36.7404 1.9649 36.7829 1.9774 36.8154 1.9824C36.8454 1.9899 36.8854 1.9949 36.9354 1.9999C36.9854 2.0049 37.0429 2.0124 37.1104 2.0224V2.0324Z" fill="black"/>
<path d="M30.8554 57.8498C44.4637 57.8498 55.4954 46.8181 55.4954 33.2098C55.4954 19.6015 44.4637 8.56982 30.8554 8.56982C17.2471 8.56982 6.21539 19.6015 6.21539 33.2098C6.21539 46.8181 17.2471 57.8498 30.8554 57.8498Z" fill="url(#paint24_linear_302_1291)" stroke="#A3822E" stroke-width="0.075" stroke-miterlimit="10"/>
<path d="M31.2229 51.4825C41.7315 51.4825 50.2504 42.9636 50.2504 32.455C50.2504 21.9464 41.7315 13.4275 31.2229 13.4275C20.7143 13.4275 12.1954 21.9464 12.1954 32.455C12.1954 42.9636 20.7143 51.4825 31.2229 51.4825Z" fill="white"/>
<path d="M31.2229 52.1174C20.3804 52.1174 11.5629 43.2974 11.5629 32.4574C11.5629 21.6174 20.3804 12.7949 31.2229 12.7949C42.0654 12.7949 50.8829 21.6149 50.8829 32.4549C50.8829 43.2949 42.0629 52.1149 31.2229 52.1149V52.1174ZM31.2229 14.0599C21.0804 14.0599 12.8279 22.3124 12.8279 32.4549C12.8279 42.5974 21.0804 50.8499 31.2229 50.8499C41.3654 50.8499 49.6179 42.5974 49.6179 32.4549C49.6179 22.3124 41.3654 14.0599 31.2229 14.0599Z" fill="black"/>
<path d="M31.2203 15.5825C21.9078 15.5825 14.3528 23.1375 14.3528 32.4575C14.3528 41.7775 21.9078 49.3325 31.2203 49.3325C40.5328 49.3325 48.0953 41.7775 48.0953 32.4575C48.0953 23.1375 40.5403 15.5825 31.2203 15.5825ZM30.6428 42.6275H31.0753C30.9253 42.8075 30.8278 42.905 30.8278 42.905C30.7603 42.815 30.7053 42.72 30.6428 42.6275Z" fill="#FF0000"/>
<path d="M43.5204 24.4223C35.1879 21.5048 30.8654 26.7073 30.8654 26.7073C24.1529 21.1898 17.7179 25.2323 17.7179 25.2323C19.5854 33.8448 26.1579 34.7598 26.1579 34.7598C24.1154 41.4348 30.8654 46.9198 30.8654 46.9198C36.5604 43.6873 36.3129 34.5123 36.3129 34.5123C42.9254 32.0823 43.5204 24.4198 43.5204 24.4198V24.4223ZM30.6704 30.4898C31.1254 29.8698 32.5679 32.8248 32.2904 33.1023C32.0129 33.3873 29.6004 33.5073 29.3929 32.9448C29.1779 32.3873 30.6704 30.4898 30.6704 30.4898ZM26.8929 32.1223C22.4629 30.9648 21.2679 26.9723 21.2679 26.9723C26.3179 26.2198 29.0179 28.7123 29.0179 28.7123C26.8929 29.9773 26.8929 32.1223 26.8929 32.1223ZM30.6829 42.5673C28.3229 39.3398 28.5829 35.3173 28.5829 35.3173C30.5504 35.8798 33.0554 35.3173 33.0554 35.3173C33.6054 39.6398 30.6829 42.5673 30.6829 42.5673ZM35.2754 32.1223C34.7704 30.4698 32.7629 28.5548 32.7629 28.5548C36.1029 25.7573 40.1479 26.6373 40.1479 26.6373C38.7054 30.3648 35.2754 32.1223 35.2754 32.1223Z" fill="white" stroke="black" stroke-width="0.125" stroke-miterlimit="10"/>
<path d="M23.5204 54.4798L23.5529 54.4948C23.5679 54.6023 23.6054 54.7048 23.6629 54.7998C23.7229 54.8948 23.7954 54.9598 23.8854 54.9998C23.9504 55.0298 24.0229 55.0423 24.0954 55.0373C24.1704 55.0323 24.2404 55.0098 24.3029 54.9698C24.3654 54.9298 24.4129 54.8773 24.4429 54.8073C24.4954 54.6873 24.4954 54.5873 24.4429 54.5098C24.3879 54.4323 24.2904 54.3323 24.1479 54.2123C24.0054 54.0923 23.9079 53.9823 23.8579 53.8798C23.8079 53.7773 23.8179 53.6473 23.8854 53.4898C23.9679 53.3048 24.0954 53.1848 24.2654 53.1348C24.4354 53.0848 24.6179 53.0998 24.8079 53.1848C24.9004 53.2248 24.9829 53.2773 25.0604 53.3373C25.1379 53.3973 25.1904 53.4498 25.2179 53.4923C25.1429 53.5598 25.0679 53.6398 24.9929 53.7348L24.9579 53.7198C24.9579 53.6698 24.9529 53.6148 24.9354 53.5548C24.9179 53.4948 24.8929 53.4448 24.8604 53.3998C24.8279 53.3548 24.7854 53.3223 24.7354 53.2998C24.6304 53.2548 24.5304 53.2448 24.4354 53.2723C24.3404 53.2998 24.2679 53.3673 24.2229 53.4723C24.1729 53.5848 24.1729 53.6823 24.2254 53.7623C24.2779 53.8398 24.3729 53.9423 24.5104 54.0648C24.6479 54.1873 24.7429 54.2998 24.7979 54.4048C24.8529 54.5098 24.8454 54.6348 24.7829 54.7798C24.7229 54.9148 24.6354 55.0148 24.5204 55.0798C24.4054 55.1448 24.2804 55.1773 24.1429 55.1723C24.0079 55.1698 23.8779 55.1423 23.7579 55.0873C23.5679 55.0023 23.4179 54.8873 23.3104 54.7373C23.4279 54.6073 23.4979 54.5223 23.5254 54.4798H23.5204Z" fill="black"/>
<path d="M27.0329 54.6973L26.7604 55.6798C26.7454 55.7348 26.7354 55.7773 26.7304 55.8048C26.7254 55.8323 26.7304 55.8573 26.7429 55.8773C26.7554 55.8973 26.7779 55.9148 26.8154 55.9248C26.8454 55.9323 26.8879 55.9373 26.9454 55.9398L26.9204 56.0323C26.8654 56.0398 26.8204 56.0423 26.7804 56.0398C26.7329 56.0348 26.6879 56.0273 26.6429 56.0148C26.5604 55.9898 26.4954 55.9473 26.4554 55.8948C26.4129 55.8398 26.3979 55.7673 26.4129 55.6723L26.3654 55.7023C26.1379 55.8298 25.9054 55.8623 25.6629 55.7948C25.5079 55.7523 25.3879 55.6673 25.3054 55.5398C25.2204 55.4123 25.2004 55.2723 25.2429 55.1223C25.2854 54.9723 25.3504 54.8673 25.4454 54.8048C25.5404 54.7423 25.6429 54.7073 25.7554 54.7048C25.8679 54.7023 26.0154 54.7098 26.1954 54.7298C26.3354 54.7448 26.4329 54.7523 26.4954 54.7498C26.5579 54.7473 26.6054 54.7348 26.6404 54.7098C26.6779 54.6848 26.7029 54.6373 26.7229 54.5698C26.7679 54.4123 26.7579 54.2773 26.6954 54.1673C26.6329 54.0573 26.5229 53.9798 26.3654 53.9373C26.2729 53.9123 26.1854 53.9048 26.1029 53.9173C26.0204 53.9298 25.9504 53.9523 25.8979 53.9873C25.8429 54.0198 25.8029 54.0548 25.7804 54.0898L25.7329 54.0773L25.7979 53.8423C26.0679 53.7498 26.3179 53.7348 26.5454 53.7973C26.7704 53.8598 26.9254 53.9673 27.0079 54.1173C27.0904 54.2673 27.1004 54.4623 27.0354 54.6998L27.0329 54.6973ZM26.4429 55.5048L26.6154 54.8848L26.4579 54.8748C26.3579 54.8648 26.2679 54.8598 26.1854 54.8548C26.1029 54.8498 26.0204 54.8548 25.9454 54.8648C25.8679 54.8773 25.7979 54.9048 25.7354 54.9523C25.6729 54.9998 25.6304 55.0673 25.6029 55.1598C25.5654 55.2923 25.5754 55.4023 25.6279 55.4898C25.6804 55.5773 25.7754 55.6398 25.9079 55.6748C25.9604 55.6898 26.0229 55.6898 26.1004 55.6748C26.1779 55.6598 26.2404 55.6373 26.2929 55.6073C26.3104 55.5973 26.3304 55.5873 26.3504 55.5773C26.3704 55.5673 26.3929 55.5548 26.4104 55.5398C26.4304 55.5248 26.4404 55.5148 26.4429 55.5073V55.5048Z" fill="black"/>
<path d="M27.6329 56.2397L28.0354 52.9597C28.0729 52.9672 28.1054 52.9747 28.1354 52.9797C28.1654 52.9872 28.1904 52.9922 28.2104 52.9922C28.2304 52.9922 28.2529 52.9947 28.2829 52.9972C28.3129 52.9972 28.3479 52.9972 28.3879 53.0022L28.1929 54.5922C28.3879 54.3297 28.6404 54.2172 28.9479 54.2547C29.1954 54.2847 29.3679 54.3772 29.4604 54.5322C29.5529 54.6872 29.5829 54.9072 29.5479 55.1922L29.3929 56.4547C29.3654 56.4472 29.3429 56.4422 29.3229 56.4397C29.3029 56.4347 29.2879 56.4322 29.2779 56.4297C29.2679 56.4272 29.2479 56.4247 29.2204 56.4197C29.1929 56.4172 29.1729 56.4147 29.1604 56.4147C29.1479 56.4147 29.1304 56.4147 29.1129 56.4147C29.0929 56.4147 29.0704 56.4147 29.0454 56.4147L29.1879 55.2522C29.2179 54.9997 29.2054 54.8097 29.1479 54.6872C29.0904 54.5622 28.9729 54.4897 28.7929 54.4672C28.4104 54.4197 28.1929 54.6297 28.1354 55.0972L27.9904 56.2847C27.9629 56.2772 27.9404 56.2722 27.9204 56.2697C27.9004 56.2672 27.8854 56.2622 27.8729 56.2597C27.8604 56.2572 27.8429 56.2547 27.8179 56.2497C27.7904 56.2472 27.7729 56.2447 27.7654 56.2447C27.7579 56.2447 27.7404 56.2447 27.7179 56.2447C27.6929 56.2447 27.6679 56.2447 27.6429 56.2447L27.6329 56.2397Z" fill="black"/>
<path d="M31.7804 55.0846L31.7954 56.1046C31.7954 56.1621 31.7979 56.2046 31.8029 56.2321C31.8054 56.2596 31.8179 56.2821 31.8354 56.2996C31.8529 56.3171 31.8804 56.3246 31.9179 56.3246C31.9504 56.3246 31.9929 56.3171 32.0454 56.3046V56.4021C31.9979 56.4246 31.9529 56.4421 31.9154 56.4496C31.8679 56.4596 31.8204 56.4646 31.7754 56.4646C31.6879 56.4646 31.6179 56.4421 31.5604 56.4021C31.5054 56.3621 31.4704 56.2946 31.4579 56.1996L31.4204 56.2421C31.2379 56.4296 31.0229 56.5246 30.7729 56.5271C30.6129 56.5296 30.4729 56.4821 30.3579 56.3821C30.2404 56.2846 30.1804 56.1546 30.1804 55.9971C30.1804 55.8421 30.2129 55.7221 30.2854 55.6346C30.3579 55.5471 30.4479 55.4871 30.5554 55.4496C30.6629 55.4146 30.8054 55.3821 30.9854 55.3496C31.1229 55.3246 31.2204 55.3046 31.2779 55.2846C31.3354 55.2671 31.3804 55.2396 31.4079 55.2046C31.4354 55.1696 31.4479 55.1171 31.4479 55.0471C31.4479 54.8821 31.3979 54.7571 31.3079 54.6671C31.2179 54.5771 31.0904 54.5371 30.9254 54.5396C30.8304 54.5396 30.7454 54.5596 30.6679 54.5946C30.5904 54.6296 30.5329 54.6721 30.4904 54.7196C30.4454 54.7671 30.4179 54.8096 30.4054 54.8496H30.3554L30.3529 54.6046C30.5879 54.4396 30.8229 54.3546 31.0579 54.3521C31.2904 54.3496 31.4704 54.4071 31.5929 54.5296C31.7154 54.6521 31.7779 54.8346 31.7829 55.0821L31.7804 55.0846ZM31.4404 56.0271L31.4304 55.3846L31.2754 55.4196C31.1779 55.4396 31.0879 55.4571 31.0079 55.4771C30.9254 55.4946 30.8504 55.5221 30.7779 55.5546C30.7079 55.5871 30.6479 55.6346 30.6004 55.6971C30.5554 55.7596 30.5329 55.8371 30.5329 55.9321C30.5329 56.0696 30.5754 56.1721 30.6504 56.2396C30.7279 56.3071 30.8329 56.3421 30.9704 56.3396C31.0254 56.3396 31.0854 56.3196 31.1554 56.2846C31.2229 56.2496 31.2779 56.2096 31.3204 56.1671C31.3354 56.1521 31.3504 56.1371 31.3679 56.1221C31.3854 56.1071 31.4004 56.0896 31.4154 56.0696C31.4304 56.0496 31.4379 56.0371 31.4379 56.0296L31.4404 56.0271Z" fill="black"/>
<path d="M32.6903 56.4047L32.2328 53.1447C32.2703 53.1447 32.3028 53.1397 32.3328 53.1397C32.3628 53.1397 32.3878 53.1372 32.4078 53.1322C32.4253 53.1297 32.4503 53.1247 32.4778 53.1172C32.5078 53.1097 32.5403 53.1022 32.5803 53.0947L32.8078 54.7072C32.8828 54.5522 32.9778 54.4272 33.0878 54.3297C33.2003 54.2322 33.3378 54.1747 33.4978 54.1522C33.6928 54.1247 33.8628 54.1522 34.0103 54.2297C34.1553 54.3072 34.2728 54.4197 34.3578 54.5672C34.4428 54.7147 34.4978 54.8697 34.5203 55.0397C34.5403 55.1872 34.5403 55.3322 34.5154 55.4747C34.4904 55.6147 34.4428 55.7447 34.3728 55.8622C34.3028 55.9797 34.2103 56.0797 34.0978 56.1597C33.9828 56.2397 33.8503 56.2897 33.6953 56.3122C33.4228 56.3497 33.2003 56.2772 33.0328 56.0897C33.0028 56.1197 32.9653 56.1597 32.9228 56.2122C32.8803 56.2647 32.8303 56.3247 32.7728 56.3922L32.6903 56.4022V56.4047ZM33.4153 54.3522C33.1853 54.3847 33.0328 54.5047 32.9578 54.7147C32.8828 54.9247 32.8653 55.1747 32.9078 55.4672C32.9303 55.6197 32.9728 55.7547 33.0403 55.8697C33.1053 55.9847 33.1903 56.0697 33.2928 56.1247C33.3953 56.1797 33.5078 56.1972 33.6328 56.1797C33.7503 56.1622 33.8453 56.1197 33.9203 56.0472C33.9953 55.9747 34.0528 55.8847 34.0903 55.7772C34.1278 55.6697 34.1503 55.5622 34.1578 55.4497C34.1653 55.3397 34.1578 55.2247 34.1428 55.1122C34.1203 54.9472 34.0778 54.8047 34.0178 54.6847C33.9578 54.5647 33.8778 54.4747 33.7778 54.4147C33.6778 54.3547 33.5578 54.3322 33.4203 54.3522H33.4153Z" fill="black"/>
<path d="M36.4479 54.2647L36.7029 55.2522C36.7179 55.3072 36.7304 55.3497 36.7404 55.3747C36.7504 55.3997 36.7654 55.4197 36.7879 55.4322C36.8079 55.4447 36.8379 55.4447 36.8729 55.4372C36.9029 55.4297 36.9429 55.4122 36.9929 55.3847L37.0179 55.4772C36.9754 55.5122 36.9354 55.5372 36.9004 55.5547C36.8579 55.5747 36.8129 55.5922 36.7679 55.6022C36.6829 55.6222 36.6079 55.6197 36.5454 55.5922C36.4804 55.5672 36.4329 55.5097 36.3979 55.4197L36.3704 55.4697C36.2379 55.6947 36.0504 55.8397 35.8104 55.9022C35.6554 55.9422 35.5104 55.9297 35.3729 55.8597C35.2354 55.7922 35.1479 55.6822 35.1079 55.5297C35.0704 55.3797 35.0754 55.2547 35.1254 55.1522C35.1754 55.0497 35.2479 54.9697 35.3429 54.9097C35.4379 54.8497 35.5704 54.7847 35.7379 54.7097C35.8654 54.6522 35.9554 54.6097 36.0079 54.5772C36.0604 54.5472 36.0954 54.5097 36.1154 54.4697C36.1329 54.4297 36.1329 54.3747 36.1154 54.3072C36.0729 54.1472 35.9979 54.0347 35.8904 53.9722C35.7804 53.9072 35.6479 53.8972 35.4904 53.9372C35.3979 53.9622 35.3179 53.9997 35.2529 54.0522C35.1879 54.1047 35.1404 54.1597 35.1079 54.2147C35.0779 54.2722 35.0604 54.3197 35.0579 54.3622L35.0104 54.3747L34.9479 54.1372C35.1354 53.9222 35.3454 53.7847 35.5729 53.7247C35.7979 53.6647 35.9854 53.6822 36.1354 53.7697C36.2829 53.8597 36.3879 54.0222 36.4504 54.2597L36.4479 54.2647ZM36.3429 55.2597L36.1804 54.6372L36.0379 54.7072C35.9479 54.7472 35.8654 54.7872 35.7904 54.8247C35.7154 54.8622 35.6479 54.9047 35.5854 54.9547C35.5229 55.0022 35.4779 55.0622 35.4479 55.1347C35.4179 55.2072 35.4129 55.2872 35.4379 55.3797C35.4729 55.5122 35.5354 55.6022 35.6254 55.6522C35.7154 55.6997 35.8279 55.7072 35.9604 55.6722C36.0129 55.6572 36.0679 55.6272 36.1254 55.5747C36.1829 55.5247 36.2279 55.4722 36.2579 55.4197C36.2679 55.4022 36.2804 55.3847 36.2929 55.3647C36.3054 55.3447 36.3179 55.3247 36.3279 55.3022C36.3379 55.2797 36.3404 55.2647 36.3404 55.2572L36.3429 55.2597Z" fill="black"/>
<path d="M36.7679 52.9522L37.0579 52.7097L37.2429 53.2497L37.6829 53.0997C37.6904 53.1422 37.6979 53.1722 37.7029 53.1872C37.7104 53.2097 37.7229 53.2347 37.7379 53.2597L37.2979 53.4097L37.6554 54.4547L37.7079 54.6047C37.7629 54.7647 37.8254 54.8847 37.9004 54.9647C37.9729 55.0472 38.0729 55.0647 38.1979 55.0222C38.2254 55.0122 38.2829 54.9822 38.3754 54.9297L38.4104 55.0297C38.2904 55.1272 38.1804 55.1922 38.0854 55.2247C38.0079 55.2522 37.9379 55.2647 37.8729 55.2647C37.8079 55.2647 37.7454 55.2472 37.6879 55.2097C37.6304 55.1722 37.5754 55.1172 37.5229 55.0372C37.4729 54.9572 37.4254 54.8572 37.3829 54.7322L36.9679 53.5197L36.7104 53.6072C36.7104 53.5872 36.7054 53.5572 36.6929 53.5247C36.6804 53.4872 36.6679 53.4622 36.6554 53.4497L36.9129 53.3622L36.7729 52.9497L36.7679 52.9522Z" fill="black"/>
<path d="M49.6179 52.7098C49.8554 52.7698 51.7579 52.4448 54.4854 51.0248C55.3479 50.5773 56.2904 50.0198 57.2904 49.3323" stroke="#A3822E" stroke-width="0.025" stroke-miterlimit="10"/>
<path d="M54.3604 46.5323C54.3604 46.5323 58.0154 44.2123 59.5979 41.3298" stroke="#A3822E" stroke-width="0.025" stroke-miterlimit="10"/>
<path d="M55.6354 39.995C55.6354 39.995 59.3904 37.6725 61.1979 33.21" stroke="#A3822E" stroke-width="0.025" stroke-miterlimit="10"/>
<path d="M56.2254 32.4549C56.2254 32.4549 58.8604 30.1524 59.5979 25.3699" stroke="#A3822E" stroke-width="0.025" stroke-miterlimit="10"/>
<path d="M53.4229 20.2124L55.0629 14.2974" stroke="#A3822E" stroke-width="0.025" stroke-miterlimit="10"/>
<defs>
<linearGradient id="paint0_linear_302_1291" x1="5.71787" y1="21.2773" x2="1.36037" y2="26.4798" gradientUnits="userSpaceOnUse">
<stop stop-color="#F7E349"/>
<stop offset="1" stop-color="#A3822E"/>
</linearGradient>
<linearGradient id="paint1_linear_302_1291" x1="56.0854" y1="21.2773" x2="60.4429" y2="26.4798" gradientUnits="userSpaceOnUse">
<stop stop-color="#F7E349"/>
<stop offset="1" stop-color="#A3822E"/>
</linearGradient>
<linearGradient id="paint2_linear_302_1291" x1="11.4229" y1="13.8024" x2="6.2204" y2="14.1524" gradientUnits="userSpaceOnUse">
<stop stop-color="#F7E349"/>
<stop offset="1" stop-color="#A3822E"/>
</linearGradient>
<linearGradient id="paint3_linear_302_1291" x1="17.8228" y1="9.30229" x2="14.2378" y2="16.8948" gradientUnits="userSpaceOnUse">
<stop stop-color="#F7E349"/>
<stop offset="1" stop-color="#A3822E"/>
</linearGradient>
<linearGradient id="paint4_linear_302_1291" x1="21.5729" y1="11.8672" x2="10.1854" y2="11.8672" gradientUnits="userSpaceOnUse">
<stop stop-color="#F7E349"/>
<stop offset="1" stop-color="#A3822E"/>
</linearGradient>
<linearGradient id="paint5_linear_302_1291" x1="5.56786" y1="53.8123" x2="15.1279" y2="55.2873" gradientUnits="userSpaceOnUse">
<stop stop-color="#F7E349"/>
<stop offset="1" stop-color="#A3822E"/>
</linearGradient>
<linearGradient id="paint6_linear_302_1291" x1="9.61288" y1="48.4622" x2="7.78538" y2="56.6172" gradientUnits="userSpaceOnUse">
<stop stop-color="#F7E349"/>
<stop offset="1" stop-color="#A3822E"/>
</linearGradient>
<linearGradient id="paint7_linear_302_1291" x1="6.01291" y1="42.8697" x2="2.99041" y2="48.0722" gradientUnits="userSpaceOnUse">
<stop stop-color="#F7E349"/>
<stop offset="1" stop-color="#A3822E"/>
</linearGradient>
<linearGradient id="paint8_linear_302_1291" x1="9.15039" y1="45.3123" x2="17.4454" y2="53.8898" gradientUnits="userSpaceOnUse">
<stop stop-color="#F7E349"/>
<stop offset="1" stop-color="#A3822E"/>
</linearGradient>
<linearGradient id="paint9_linear_302_1291" x1="5.22038" y1="35.4724" x2="0.862878" y2="45.3149" gradientUnits="userSpaceOnUse">
<stop stop-color="#F7E349"/>
<stop offset="1" stop-color="#A3822E"/>
</linearGradient>
<linearGradient id="paint10_linear_302_1291" x1="5.65787" y1="27.8073" x2="-0.879629" y2="35.8198" gradientUnits="userSpaceOnUse">
<stop stop-color="#F7E349"/>
<stop offset="1" stop-color="#A3822E"/>
</linearGradient>
<linearGradient id="paint11_linear_302_1291" x1="9.41037" y1="17.4722" x2="3.43537" y2="18.3147" gradientUnits="userSpaceOnUse">
<stop stop-color="#F7E349"/>
<stop offset="1" stop-color="#A3822E"/>
</linearGradient>
<linearGradient id="paint12_linear_302_1291" x1="50.3804" y1="13.8024" x2="55.5829" y2="14.1524" gradientUnits="userSpaceOnUse">
<stop stop-color="#F7E349"/>
<stop offset="1" stop-color="#A3822E"/>
</linearGradient>
<linearGradient id="paint13_linear_302_1291" x1="43.9804" y1="9.30229" x2="47.5654" y2="16.8948" gradientUnits="userSpaceOnUse">
<stop stop-color="#F7E349"/>
<stop offset="1" stop-color="#A3822E"/>
</linearGradient>
<linearGradient id="paint14_linear_302_1291" x1="40.2304" y1="11.8672" x2="51.6179" y2="11.8672" gradientUnits="userSpaceOnUse">
<stop stop-color="#F7E349"/>
<stop offset="1" stop-color="#A3822E"/>
</linearGradient>
<linearGradient id="paint15_linear_302_1291" x1="56.2354" y1="53.8123" x2="46.6754" y2="55.2873" gradientUnits="userSpaceOnUse">
<stop stop-color="#F7E349"/>
<stop offset="1" stop-color="#A3822E"/>
</linearGradient>
<linearGradient id="paint16_linear_302_1291" x1="52.1904" y1="48.4622" x2="54.0179" y2="56.6172" gradientUnits="userSpaceOnUse">
<stop stop-color="#F7E349"/>
<stop offset="1" stop-color="#A3822E"/>
</linearGradient>
<linearGradient id="paint17_linear_302_1291" x1="55.7904" y1="42.8697" x2="58.8129" y2="48.0722" gradientUnits="userSpaceOnUse">
<stop stop-color="#F7E349"/>
<stop offset="1" stop-color="#A3822E"/>
</linearGradient>
<linearGradient id="paint18_linear_302_1291" x1="52.6529" y1="45.3123" x2="44.3579" y2="53.8898" gradientUnits="userSpaceOnUse">
<stop stop-color="#F7E349"/>
<stop offset="1" stop-color="#A3822E"/>
</linearGradient>
<linearGradient id="paint19_linear_302_1291" x1="56.5829" y1="35.4724" x2="60.9404" y2="45.3149" gradientUnits="userSpaceOnUse">
<stop stop-color="#F7E349"/>
<stop offset="1" stop-color="#A3822E"/>
</linearGradient>
<linearGradient id="paint20_linear_302_1291" x1="56.1454" y1="27.8073" x2="62.6829" y2="35.8198" gradientUnits="userSpaceOnUse">
<stop stop-color="#F7E349"/>
<stop offset="1" stop-color="#A3822E"/>
</linearGradient>
<linearGradient id="paint21_linear_302_1291" x1="52.3929" y1="17.4722" x2="58.3679" y2="18.3147" gradientUnits="userSpaceOnUse">
<stop stop-color="#F7E349"/>
<stop offset="1" stop-color="#A3822E"/>
</linearGradient>
<linearGradient id="paint22_linear_302_1291" x1="30.8554" y1="50.8523" x2="30.8554" y2="65.7948" gradientUnits="userSpaceOnUse">
<stop stop-color="#F7E349"/>
<stop offset="1" stop-color="#A3822E"/>
</linearGradient>
<linearGradient id="paint23_linear_302_1291" x1="30.8554" y1="11.5073" x2="30.8554" y2="0.0398205" gradientUnits="userSpaceOnUse">
<stop stop-color="#F7E349"/>
<stop offset="1" stop-color="#A3822E"/>
</linearGradient>
<linearGradient id="paint24_linear_302_1291" x1="30.8554" y1="8.56982" x2="30.8554" y2="57.8498" gradientUnits="userSpaceOnUse">
<stop stop-color="#F7E349"/>
<stop offset="1" stop-color="#A3822E"/>
</linearGradient>
</defs>
</svg>
